<svg width="360" height="240" viewBox="0 0 360 240" fill="none" xmlns="http://www.w3.org/2000/svg">
<g clip-path="url(#clip0_0_182)">
<rect width="360" height="240" rx="10" fill="#2C2C2C"/>
<mask id="path-2-inside-1_0_182" fill="white">
<path d="M0 243H59V50H0V243Z"/>
</mask>
<path d="M0 243H59V50H0V243Z" fill="white"/>
<path d="M58 243V50H60V243H58Z" fill="#CECECE" mask="url(#path-2-inside-1_0_182)"/>
<mask id="path-4-inside-2_0_182" fill="white">
<path d="M300 244H360V51H300V244Z"/>
</mask>
<path d="M300 244H360V51H300V244Z" fill="white"/>
<path d="M301 51V244H299V51H301Z" fill="#CECECE" mask="url(#path-4-inside-2_0_182)"/>
<mask id="path-6-inside-3_0_182" fill="white">
<path d="M0 42L-3.93402e-07 51L360 51L360 42L0 42Z"/>
</mask>
<path d="M0 42L-3.93402e-07 51L360 51L360 42L0 42Z" fill="white"/>
<path d="M-3.4969e-07 50L360 50L360 52L-4.37113e-07 52L-3.4969e-07 50Z" fill="#CECECE" mask="url(#path-6-inside-3_0_182)"/>
<mask id="path-8-inside-4_0_182" fill="white">
<path d="M301 73L301 82L360 82L360 73L301 73Z"/>
</mask>
<path d="M301 73L301 82L360 82L360 73L301 73Z" fill="white"/>
<path d="M301 81L360 81L360 83L301 83L301 81Z" fill="#CECECE" mask="url(#path-8-inside-4_0_182)"/>
<mask id="path-10-inside-5_0_182" fill="white">
<path d="M300.882 134.294L300.882 143.118L359.999 143.118L359.999 134.294L300.882 134.294Z"/>
</mask>
<path d="M300.882 134.294L300.882 143.118L359.999 143.118L359.999 134.294L300.882 134.294Z" fill="white"/>
<path d="M300.882 142.118L359.999 142.118L359.999 144.118L300.882 144.118L300.882 142.118Z" fill="#CECECE" mask="url(#path-10-inside-5_0_182)"/>
<mask id="path-12-inside-6_0_182" fill="white">
<path d="M300.882 197.824L300.882 206.648L359.999 206.648L359.999 197.824L300.882 197.824Z"/>
</mask>
<path d="M300.882 197.824L300.882 206.648L359.999 206.648L359.999 197.824L300.882 197.824Z" fill="white"/>
<path d="M300.882 205.648L359.999 205.648L359.999 207.648L300.882 207.648L300.882 205.648Z" fill="#CECECE" mask="url(#path-12-inside-6_0_182)"/>
<path d="M0 24L-7.86804e-07 42L360 42L360 24L0 24Z" fill="#1E1E1E"/>
<g opacity="0.91">
<rect width="22.0588" height="8.82353" rx="1" transform="matrix(1 -2.02036e-07 -3.74405e-08 -1 327.353 38)" fill="#19BCFE"/>
<rect width="17" height="18" transform="matrix(1 -2.02036e-07 -3.74405e-08 -1 23 42)" fill="#19BCFE"/>
<rect width="8.82353" height="8.82353" rx="4.41176" transform="matrix(1 -2.02036e-07 -3.74405e-08 -1 309.706 38)" fill="#EB0C0C"/>
</g>
<g clip-path="url(#clip1_0_182)">
<rect width="241" height="190" transform="translate(59 51)" fill="#E5E5E5" fill-opacity="0.98"/>
<g filter="url(#filter0_d_0_182)">
<rect x="82.5513" y="-21.2087" width="82.2833" height="151.268" fill="white"/>
</g>
<g filter="url(#filter1_d_0_182)">
<rect x="228.833" y="-21.2087" width="82.2833" height="211.942" fill="white"/>
</g>
<path d="M150.514 212.701C149.259 212.701 148.243 212.491 147.463 212.071C146.69 211.645 146.124 211.048 145.765 210.281C145.405 209.514 145.226 208.613 145.226 207.578C145.226 207.334 145.226 207.012 145.226 206.61C145.226 206.208 145.226 205.767 145.226 205.286C145.226 204.799 145.226 204.308 145.226 203.815C145.226 202.987 145.226 202.235 145.226 201.56C145.226 200.884 145.226 200.184 145.226 199.459H147.363C147.363 200.184 147.363 200.884 147.363 201.56C147.363 202.235 147.363 202.987 147.363 203.815V207.413C147.363 208.144 147.466 208.768 147.673 209.286C147.886 209.803 148.221 210.202 148.678 210.482C149.141 210.756 149.749 210.893 150.504 210.893C151.272 210.893 151.883 210.756 152.34 210.482C152.797 210.202 153.125 209.803 153.326 209.286C153.527 208.768 153.628 208.141 153.628 207.404V203.815C153.628 202.987 153.628 202.235 153.628 201.56C153.628 200.884 153.628 200.184 153.628 199.459H155.765C155.765 200.184 155.765 200.884 155.765 201.56C155.765 202.235 155.765 202.987 155.765 203.815C155.765 204.308 155.765 204.799 155.765 205.286C155.765 205.773 155.765 206.22 155.765 206.628C155.765 207.03 155.765 207.35 155.765 207.587C155.765 208.622 155.579 209.523 155.208 210.29C154.842 211.051 154.273 211.645 153.5 212.071C152.727 212.491 151.731 212.701 150.514 212.701ZM158.742 212.482C158.742 211.764 158.742 211.073 158.742 210.409C158.742 209.745 158.742 209.009 158.742 208.199V203.815C158.742 202.987 158.742 202.235 158.742 201.56C158.742 200.884 158.742 200.184 158.742 199.459H160.924C160.924 200.184 160.924 200.884 160.924 201.56C160.924 202.235 160.924 202.987 160.924 203.815V208.199C160.924 209.009 160.924 209.745 160.924 210.409C160.924 211.073 160.924 211.764 160.924 212.482H158.742Z" fill="#FEBE10"/>
<rect x="85.806" y="151.857" width="83.5964" height="31.6121" stroke="#04AAFF" stroke-width="1.40498"/>
<rect x="166.496" y="149.176" width="5.81801" height="5.81801" fill="white" stroke="#04AAFF" stroke-width="1.40498"/>
<rect x="83.3823" y="149.176" width="5.81801" height="5.81801" fill="white" stroke="#04AAFF" stroke-width="1.40498"/>
<path d="M166.496 180.343H172.314V186.161H166.496V180.343Z" fill="white" stroke="#04AAFF" stroke-width="1.40498"/>
<path d="M83.3823 180.343H89.2003V186.161H83.3823V180.343Z" fill="white" stroke="#04AAFF" stroke-width="1.40498"/>
<rect x="86.5085" y="152.559" width="82.0846" height="30.2071" rx="15.1036" fill="#EB0C0C"/>
<path d="M105.062 173.663V163.261H109.151C109.81 163.261 110.364 163.396 110.812 163.665C111.26 163.935 111.597 164.284 111.823 164.713C112.05 165.137 112.163 165.584 112.163 166.056C112.163 166.629 112.021 167.121 111.737 167.53C111.457 167.939 111.079 168.219 110.602 168.368L110.588 168.014C111.253 168.178 111.763 168.498 112.119 168.975C112.476 169.447 112.654 169.998 112.654 170.629C112.654 171.24 112.531 171.772 112.286 172.225C112.045 172.678 111.691 173.032 111.224 173.287C110.761 173.537 110.2 173.663 109.541 173.663H105.062ZM106.593 172.225H109.309C109.651 172.225 109.957 172.16 110.227 172.03C110.501 171.9 110.716 171.715 110.87 171.474C111.029 171.228 111.108 170.937 111.108 170.6C111.108 170.287 111.038 170.005 110.899 169.755C110.764 169.499 110.566 169.3 110.306 169.155C110.051 169.006 109.75 168.931 109.403 168.931H106.593V172.225ZM106.593 167.508H109.129C109.408 167.508 109.659 167.453 109.88 167.342C110.106 167.227 110.285 167.063 110.415 166.851C110.549 166.634 110.617 166.374 110.617 166.071C110.617 165.666 110.482 165.334 110.212 165.074C109.943 164.814 109.582 164.684 109.129 164.684H106.593V167.508ZM117.031 173.872C116.492 173.872 116.039 173.785 115.673 173.612C115.307 173.439 115.009 173.212 114.778 172.933C114.551 172.649 114.378 172.341 114.258 172.008C114.137 171.676 114.055 171.351 114.012 171.033C113.969 170.715 113.947 170.436 113.947 170.195V165.861H115.478V169.697C115.478 170 115.502 170.313 115.55 170.636C115.603 170.954 115.7 171.25 115.839 171.524C115.984 171.799 116.184 172.02 116.439 172.189C116.699 172.358 117.036 172.442 117.45 172.442C117.72 172.442 117.975 172.398 118.216 172.312C118.457 172.22 118.666 172.076 118.844 171.878C119.027 171.681 119.169 171.421 119.271 171.098C119.377 170.776 119.429 170.383 119.429 169.921L120.369 170.275C120.369 170.983 120.236 171.609 119.971 172.153C119.706 172.692 119.326 173.114 118.83 173.417C118.334 173.72 117.734 173.872 117.031 173.872ZM119.61 173.663V171.409H119.429V165.861H120.954V173.663H119.61ZM127.444 173.663C126.952 173.759 126.471 173.8 125.999 173.785C125.527 173.771 125.106 173.679 124.735 173.511C124.364 173.342 124.085 173.077 123.897 172.716C123.728 172.394 123.637 172.066 123.622 171.734C123.613 171.397 123.608 171.016 123.608 170.593V163.694H125.125V170.52C125.125 170.833 125.127 171.105 125.132 171.337C125.142 171.568 125.192 171.763 125.284 171.922C125.457 172.22 125.732 172.391 126.107 172.435C126.488 172.473 126.933 172.456 127.444 172.384V173.663ZM122.113 167.075V165.861H127.444V167.075H122.113ZM132.681 173.663C132.189 173.759 131.708 173.8 131.236 173.785C130.764 173.771 130.343 173.679 129.972 173.511C129.601 173.342 129.322 173.077 129.134 172.716C128.965 172.394 128.874 172.066 128.859 171.734C128.85 171.397 128.845 171.016 128.845 170.593V163.694H130.362V170.52C130.362 170.833 130.364 171.105 130.369 171.337C130.379 171.568 130.429 171.763 130.521 171.922C130.694 172.22 130.969 172.391 131.344 172.435C131.725 172.473 132.17 172.456 132.681 172.384V173.663ZM127.35 167.075V165.861H132.681V167.075H127.35ZM137.696 173.879C136.916 173.879 136.24 173.704 135.667 173.352C135.093 173 134.65 172.516 134.337 171.9C134.029 171.279 133.875 170.564 133.875 169.755C133.875 168.941 134.034 168.226 134.352 167.609C134.67 166.988 135.115 166.507 135.688 166.165C136.261 165.818 136.931 165.645 137.696 165.645C138.476 165.645 139.153 165.82 139.726 166.172C140.299 166.523 140.742 167.007 141.055 167.624C141.368 168.24 141.525 168.951 141.525 169.755C141.525 170.569 141.366 171.286 141.048 171.907C140.735 172.524 140.292 173.008 139.719 173.359C139.146 173.706 138.472 173.879 137.696 173.879ZM137.696 172.456C138.443 172.456 138.999 172.206 139.365 171.705C139.736 171.199 139.921 170.549 139.921 169.755C139.921 168.941 139.733 168.291 139.358 167.804C138.987 167.313 138.433 167.068 137.696 167.068C137.191 167.068 136.774 167.183 136.447 167.414C136.119 167.641 135.876 167.956 135.717 168.361C135.558 168.76 135.479 169.225 135.479 169.755C135.479 170.573 135.667 171.228 136.042 171.719C136.418 172.211 136.969 172.456 137.696 172.456ZM148.587 173.663V169.827C148.587 169.524 148.561 169.213 148.508 168.895C148.46 168.572 148.364 168.274 148.219 167.999C148.079 167.725 147.88 167.503 147.62 167.335C147.364 167.166 147.03 167.082 146.615 167.082C146.346 167.082 146.091 167.128 145.85 167.219C145.609 167.306 145.397 167.448 145.214 167.645C145.036 167.843 144.894 168.103 144.788 168.426C144.687 168.748 144.636 169.141 144.636 169.603L143.697 169.249C143.697 168.541 143.83 167.918 144.094 167.378C144.359 166.834 144.74 166.41 145.236 166.107C145.732 165.803 146.331 165.652 147.034 165.652C147.574 165.652 148.026 165.738 148.392 165.912C148.758 166.085 149.055 166.314 149.281 166.598C149.512 166.877 149.688 167.183 149.808 167.515C149.929 167.848 150.01 168.173 150.054 168.491C150.097 168.808 150.119 169.088 150.119 169.329V173.663H148.587ZM143.105 173.663V165.861H144.456V168.115H144.636V173.663H143.105Z" fill="white"/>
<path d="M127.873 180.312L148.887 190.831L139.12 194.676L133.045 203.235L127.873 180.312Z" fill="#FEBE10"/>
<rect x="114.134" y="80.1899" width="32.4147" height="5.81801" fill="#E1E1E1"/>
<rect x="89.1997" y="98.4756" width="53.1933" height="6.64916" fill="#E1E1E1"/>
<rect x="235.482" y="152.5" width="68.985" height="25.7655" fill="#E1E1E1"/>
<rect x="89.1997" y="56.0879" width="68.985" height="6.64916" fill="#E1E1E1"/>
<rect x="89.1997" y="111.774" width="24.9343" height="6.64916" fill="#E1E1E1"/>
<rect x="235.482" y="100.138" width="19.1163" height="6.64916" fill="#E1E1E1"/>
<rect x="260.417" y="100.138" width="19.1163" height="6.64916" fill="#E1E1E1"/>
<rect x="285.351" y="100.138" width="19.1163" height="6.64916" fill="#E1E1E1"/>
<rect x="235.482" y="138.37" width="19.1163" height="6.64916" fill="#E1E1E1"/>
<rect x="260.417" y="138.37" width="19.1163" height="6.64916" fill="#E1E1E1"/>
<rect x="285.351" y="138.37" width="19.1163" height="6.64916" fill="#E1E1E1"/>
<rect x="235.481" y="61.9053" width="19.1163" height="6.64916" fill="#E1E1E1"/>
<rect x="260.416" y="61.9053" width="19.1163" height="6.64916" fill="#E1E1E1"/>
<rect x="285.351" y="61.9053" width="19.1163" height="6.64916" fill="#E1E1E1"/>
<rect x="114.134" y="68.5542" width="44.0507" height="5.81801" fill="#E1E1E1"/>
<path d="M304.467 75.2034V96.8131H285.351V75.2034H304.467Z" fill="#E1E1E1"/>
<path d="M279.532 75.2034V96.8131H260.416V75.2034H279.532Z" fill="#E1E1E1"/>
<path d="M254.598 75.2034V96.8131H235.481V75.2034H254.598Z" fill="#E1E1E1"/>
<path d="M304.467 113.436V135.046H285.351V113.436H304.467Z" fill="#E1E1E1"/>
<path d="M279.533 113.436V135.046H260.417V113.436H279.533Z" fill="#E1E1E1"/>
<path d="M254.598 113.436V135.046H235.482V113.436H254.598Z" fill="#E1E1E1"/>
<path d="M304.467 36.9717V58.5814H285.351V36.9717H304.467Z" fill="#E1E1E1"/>
<path d="M279.532 36.9717V58.5814H260.416V36.9717H279.532Z" fill="#E1E1E1"/>
<path d="M254.598 36.9717V58.5814H235.481V36.9717H254.598Z" fill="#E1E1E1"/>
<rect x="89.2002" y="68.5542" width="19.1163" height="17.454" fill="#E1E1E1"/>
<path d="M151.174 102.883H179.521C183.789 102.883 187.248 99.4229 187.248 95.1551V83.2978C187.248 79.0301 190.708 75.5704 194.976 75.5704H221.768M221.768 75.5704L213.086 66.8926M221.768 75.5704L213.086 84.2482" stroke="#91A1F8" stroke-width="2.49344" stroke-linecap="round"/>
<path d="M202.263 145.786C201.009 145.786 199.992 145.576 199.213 145.155C198.44 144.729 197.873 144.133 197.514 143.366C197.155 142.598 196.975 141.697 196.975 140.662C196.975 140.419 196.975 140.096 196.975 139.694C196.975 139.292 196.975 138.851 196.975 138.37C196.975 137.883 196.975 137.393 196.975 136.9C196.975 136.072 196.975 135.32 196.975 134.644C196.975 133.968 196.975 133.268 196.975 132.544H199.112C199.112 133.268 199.112 133.968 199.112 134.644C199.112 135.32 199.112 136.072 199.112 136.9V140.498C199.112 141.229 199.216 141.853 199.423 142.37C199.636 142.888 199.971 143.286 200.427 143.566C200.89 143.84 201.499 143.977 202.254 143.977C203.021 143.977 203.633 143.84 204.089 143.566C204.546 143.286 204.875 142.888 205.076 142.37C205.277 141.853 205.377 141.225 205.377 140.489V136.9C205.377 136.072 205.377 135.32 205.377 134.644C205.377 133.968 205.377 133.268 205.377 132.544H207.514C207.514 133.268 207.514 133.968 207.514 134.644C207.514 135.32 207.514 136.072 207.514 136.9C207.514 137.393 207.514 137.883 207.514 138.37C207.514 138.857 207.514 139.305 207.514 139.713C207.514 140.114 207.514 140.434 207.514 140.671C207.514 141.706 207.328 142.608 206.957 143.375C206.592 144.136 206.022 144.729 205.249 145.155C204.476 145.576 203.481 145.786 202.263 145.786ZM209.514 145.566C209.861 144.97 210.217 144.364 210.582 143.749C210.948 143.134 211.328 142.492 211.724 141.822L213.623 138.589V139.155L211.952 136.48C211.569 135.859 211.179 135.235 210.783 134.608C210.388 133.974 209.958 133.286 209.496 132.544H211.961C212.296 133.104 212.625 133.652 212.948 134.187C213.27 134.717 213.578 135.226 213.87 135.713L215.002 137.585H215.185L216.281 135.694C216.567 135.207 216.865 134.696 217.176 134.16C217.493 133.624 217.806 133.085 218.117 132.544H220.509C220.089 133.244 219.687 133.913 219.304 134.553C218.926 135.186 218.579 135.773 218.263 136.315L216.455 139.338V138.717L218.318 141.557C218.774 142.257 219.209 142.93 219.623 143.576C220.044 144.215 220.479 144.878 220.929 145.566H218.391C218.05 145.018 217.724 144.501 217.413 144.014C217.109 143.527 216.814 143.058 216.528 142.608L215.13 140.379H214.948L213.642 142.617C213.362 143.092 213.082 143.566 212.802 144.041C212.528 144.516 212.232 145.025 211.916 145.566H209.514Z" fill="#0ACF84"/>
<path d="M180.236 111.327L201.249 121.847L191.483 125.691L185.408 134.251L180.236 111.327Z" fill="#0ACF84"/>
<rect x="147.381" y="98.3162" width="8.42989" height="8.42989" rx="4.21495" fill="white" stroke="#91A1F8" stroke-width="2.80996"/>
<path d="M126.602 221.486V220.655H125.771H86.707H85.8759V221.486V250.576V251.407H86.707H125.771H126.602V250.576V221.486Z" fill="#CDCDCD" stroke="white" stroke-width="1.66229" stroke-linecap="round"/>
<circle cx="118.706" cy="228.55" r="2.90901" fill="#EBEBEB"/>
<path d="M101.252 230.628L112.473 246.42H90.0319L101.252 230.628Z" fill="#EBEBEB"/>
<path d="M114.55 235.615L122.446 246.42H106.655L114.55 235.615Z" fill="#A5A5A5"/>
<path d="M216.828 201.537V200.706H215.997H186.444H185.613V201.537V230.627V231.458H186.444H215.997H216.828V230.627V201.537Z" fill="#CDCDCD" stroke="white" stroke-width="1.66229" stroke-linecap="round"/>
<circle cx="210.132" cy="208.602" r="2.90901" fill="#EBEBEB"/>
<path d="M197.249 213.174L205.56 226.472H188.938L197.249 213.174Z" fill="#EBEBEB"/>
<path d="M207.639 217.329L213.872 226.472H201.405L207.639 217.329Z" fill="#A5A5A5"/>
</g>
<rect width="42.3529" height="6.17646" transform="matrix(1 -2.02036e-07 -3.74405e-08 -1 7.05908 64.5886)" fill="#E1E1E1"/>
<rect width="22.9412" height="6.17647" transform="matrix(1 -2.02036e-07 -3.74405e-08 -1 7.05908 77.8237)" fill="#E1E1E1"/>
<rect width="42.3529" height="6.17646" transform="matrix(1 -2.02036e-07 -3.74405e-08 -1 7.05908 91.0591)" fill="#E1E1E1"/>
<rect width="42.3529" height="6.17646" transform="matrix(1 -2.02036e-07 -3.74405e-08 -1 307.059 101.647)" fill="#E1E1E1"/>
<rect width="42.3529" height="6.17646" transform="matrix(1 -2.02036e-07 -3.74405e-08 -1 307.059 163.412)" fill="#E1E1E1"/>
<rect width="22.9412" height="6.17647" transform="matrix(1 -2.02036e-07 -3.74405e-08 -1 307.059 114.882)" fill="#E1E1E1"/>
<rect width="42.3529" height="6.17646" transform="matrix(1 -2.02036e-07 -3.74405e-08 -1 307.059 128.118)" fill="#E1E1E1"/>
<rect width="42.3529" height="6.17646" transform="matrix(1 -2.02036e-07 -3.74405e-08 -1 307.059 175.765)" fill="#E1E1E1"/>
<rect width="32.6471" height="6.17646" transform="matrix(1 -2.02036e-07 -3.74405e-08 -1 7.05908 104.294)" fill="#E1E1E1"/>
<rect width="42.3529" height="6.17646" transform="matrix(1 -2.02036e-07 -3.74405e-08 -1 7.05908 117.53)" fill="#E1E1E1"/>
<rect width="28.2353" height="6.17647" transform="matrix(1 -2.02036e-07 -3.74405e-08 -1 7.05908 130.765)" fill="#E1E1E1"/>
<rect width="42.3529" height="6.17646" transform="matrix(1 -2.02036e-07 -3.74405e-08 -1 7.05908 144)" fill="#E1E1E1"/>
<rect width="22.9412" height="6.17647" transform="matrix(1 -2.02036e-07 -3.74405e-08 -1 7.05908 157.235)" fill="#E1E1E1"/>
<rect width="42.3529" height="6.17646" transform="matrix(1 -2.02036e-07 -3.74405e-08 -1 7.05908 170.471)" fill="#E1E1E1"/>
<rect width="32.6471" height="6.17646" transform="matrix(1 -2.02036e-07 -3.74405e-08 -1 7.05908 183.706)" fill="#E1E1E1"/>
<rect width="42.3529" height="6.17646" transform="matrix(1 -2.02036e-07 -3.74405e-08 -1 7.05908 196.941)" fill="#E1E1E1"/>
<rect width="28.2353" height="6.17647" transform="matrix(1 -2.02036e-07 -3.74405e-08 -1 7.05908 210.176)" fill="#E1E1E1"/>
<circle cx="12" cy="12" r="4" fill="#EB6A5E"/>
<circle cx="26" cy="12" r="4" fill="#F2BF4E"/>
<circle cx="40" cy="12" r="4" fill="#65C553"/>
</g>
<defs>
<filter id="filter0_d_0_182" x="82.5513" y="-21.2087" width="83.9456" height="152.931" filterUnits="userSpaceOnUse" color-interpolation-filters="sRGB">
<feFlood flood-opacity="0" result="BackgroundImageFix"/>
<feColorMatrix in="SourceAlpha" type="matrix" values="0 0 0 0 0 0 0 0 0 0 0 0 0 0 0 0 0 0 127 0" result="hardAlpha"/>
<feOffset dx="1.66229" dy="1.66229"/>
<feComposite in2="hardAlpha" operator="out"/>
<feColorMatrix type="matrix" values="0 0 0 0 0.807843 0 0 0 0 0.807843 0 0 0 0 0.807843 0 0 0 1 0"/>
<feBlend mode="normal" in2="BackgroundImageFix" result="effect1_dropShadow_0_182"/>
<feBlend mode="normal" in="SourceGraphic" in2="effect1_dropShadow_0_182" result="shape"/>
</filter>
<filter id="filter1_d_0_182" x="228.833" y="-21.2087" width="83.9456" height="213.604" filterUnits="userSpaceOnUse" color-interpolation-filters="sRGB">
<feFlood flood-opacity="0" result="BackgroundImageFix"/>
<feColorMatrix in="SourceAlpha" type="matrix" values="0 0 0 0 0 0 0 0 0 0 0 0 0 0 0 0 0 0 127 0" result="hardAlpha"/>
<feOffset dx="1.66229" dy="1.66229"/>
<feComposite in2="hardAlpha" operator="out"/>
<feColorMatrix type="matrix" values="0 0 0 0 0.807843 0 0 0 0 0.807843 0 0 0 0 0.807843 0 0 0 1 0"/>
<feBlend mode="normal" in2="BackgroundImageFix" result="effect1_dropShadow_0_182"/>
<feBlend mode="normal" in="SourceGraphic" in2="effect1_dropShadow_0_182" result="shape"/>
</filter>
<clipPath id="clip0_0_182">
<rect width="360" height="240" rx="10" fill="white"/>
</clipPath>
<clipPath id="clip1_0_182">
<rect width="241" height="190" fill="white" transform="translate(59 51)"/>
</clipPath>
</defs>
</svg>
