<svg width="387" height="60" viewBox="0 0 387 60" fill="none" xmlns="http://www.w3.org/2000/svg">
<g clip-path="url(#clip0_0_453)">
<path d="M94.7757 23.1325H86.7582V41.3865H81.4168V23.1325H73.3993V18.3629H94.7757V23.1325Z" fill="#A5A5A5"/>
<path d="M100.494 18.3629H108.178L117.361 41.3865H111.516L109.714 36.6169H98.9573L97.1557 41.3865H91.3055L100.494 18.3629ZM107.907 31.8473L104.336 22.4437L100.764 31.8473H107.907Z" fill="#A5A5A5"/>
<path d="M123.566 41.3865H118.225V18.3629H127.376L135.923 37.8641V18.3629H141.265V41.3865H132.113L123.566 21.8801V41.3865Z" fill="#A5A5A5"/>
<path d="M149.924 18.3629V32.0143C149.924 35.041 151.492 36.9457 154.433 36.9457C157.374 36.9457 158.943 35.0357 158.943 32.0143V18.3629H164.284V32.0143C164.284 37.9372 160.543 41.7153 154.433 41.7153C148.323 41.7153 144.582 37.932 144.582 32.0143V18.3629H149.924Z" fill="#A5A5A5"/>
<path d="M188.628 41.3865H182.449L176.138 31.6855L172.932 35.1401V41.3918H167.591V18.3629H172.932V27.6726L181.448 18.3629H188.124L179.609 27.7352L188.628 41.3865Z" fill="#A5A5A5"/>
<path d="M189.566 18.3629H194.907V41.3865H189.566V18.3629Z" fill="#A5A5A5"/>
<path d="M215.335 18.3629V21.8175H202.14V28.3979H214.328V31.8525H202.14V41.3918H198.468V18.3629H215.335Z" fill="#A5A5A5"/>
<path d="M223.496 18.3629H228.572L238.19 41.3865H234.046L231.81 35.7924H220.253L218.016 41.3865H213.872L223.496 18.3629ZM230.511 32.5048L226.039 21.3531L221.567 32.5048H230.511Z" fill="#A5A5A5"/>
<path d="M262.396 41.3865V20.3668L255.55 41.3865H249.869L243.023 20.3668V41.3865H239.35V18.3629H246.197L252.709 38.5895L259.222 18.3629H266.068V41.3865H262.396Z" fill="#A5A5A5"/>
<path d="M269.974 18.3629H273.646V41.3865H269.974V18.3629Z" fill="#A5A5A5"/>
<path d="M281.144 18.3629V37.932H295.171V41.3865H277.472V18.3629H281.144Z" fill="#A5A5A5"/>
<path d="M302.128 28.8206L309.144 18.3629H313.32L303.967 32.0143V41.3865H300.295V32.0143L290.942 18.3629H295.451L302.128 28.8206Z" fill="#A5A5A5"/>
</g>
<defs>
<clipPath id="clip0_0_453">
<rect width="240.047" height="24.0047" fill="white" transform="translate(73.3099 17.9977)"/>
</clipPath>
</defs>
</svg>
