<svg width="54" height="54" viewBox="0 0 54 54" fill="none" xmlns="http://www.w3.org/2000/svg">
<g clip-path="url(#clip0_0_394)">
<rect width="54" height="54" rx="16" fill="#2C2C2C"/>
<g clip-path="url(#clip1_0_394)">
<path fill-rule="evenodd" clip-rule="evenodd" d="M26.9493 10C17.5768 10 10 17.7917 10 27.431C10 35.1363 14.8547 41.6586 21.5895 43.9671C22.4315 44.1406 22.7399 43.592 22.7399 43.1305C22.7399 42.7264 22.7122 41.3413 22.7122 39.898C17.9973 40.9372 17.0154 37.8201 17.0154 37.8201C16.2577 35.8 15.135 35.2808 15.135 35.2808C13.5919 34.213 15.2474 34.213 15.2474 34.213C16.9592 34.3284 17.8575 36.0022 17.8575 36.0022C19.3726 38.657 21.814 37.9069 22.7961 37.4451C22.9363 36.3195 23.3856 35.5404 23.8626 35.1076C20.1022 34.7035 16.1457 33.2029 16.1457 26.5074C16.1457 24.6026 16.8187 23.0443 17.8852 21.8324C17.717 21.3996 17.1275 19.61 18.0538 17.2147C18.0538 17.2147 19.485 16.7529 22.7118 19.004C24.0934 18.6224 25.5181 18.4283 26.9493 18.4267C28.3805 18.4267 29.8393 18.6289 31.1865 19.004C34.4137 16.7529 35.8449 17.2147 35.8449 17.2147C36.7712 19.61 36.1814 21.3996 36.0131 21.8324C37.1077 23.0443 37.753 24.6026 37.753 26.5074C37.753 33.2029 33.7965 34.6744 30.008 35.1076C30.6255 35.6558 31.1584 36.6946 31.1584 38.3397C31.1584 40.6772 31.1307 42.5532 31.1307 43.1302C31.1307 43.592 31.4394 44.1406 32.2811 43.9674C39.0159 41.6583 43.8706 35.1363 43.8706 27.431C43.8983 17.7917 36.2938 10 26.9493 10Z" fill="#DFDFDF"/>
</g>
</g>
<defs>
<clipPath id="clip0_0_394">
<rect width="54" height="54" rx="16" fill="white"/>
</clipPath>
<clipPath id="clip1_0_394">
<rect width="34" height="34" fill="white" transform="translate(10 10)"/>
</clipPath>
</defs>
</svg>
