<svg width="54" height="54" viewBox="0 0 54 54" fill="none" xmlns="http://www.w3.org/2000/svg">
<rect width="54" height="54" rx="16" fill="#2C2C2C"/>
<path d="M27 44C22.7749 43.898 21.1032 41.0737 20.5932 38.3469C20.3156 36.8645 20.4368 34.3995 20.5932 33.5189C20.846 32.0853 21.254 30.0237 21.7062 27.6324C22.3522 24.2052 24.068 22.2559 27.7729 21.56L33.8317 20.404C33.9926 19.5041 34.2964 17.1219 34.0198 15.6542C33.5042 12.8968 31.3803 10.0442 27.068 10C17.676 10 10 17.6081 10 27C10 36.3919 17.6081 44 27 44Z" fill="url(#paint0_linear_0_385)"/>
<path d="M27 10C31.224 10.102 33.315 12.9319 33.825 15.6587C34.1026 17.1411 33.5632 19.6016 33.4068 20.4811C33.154 21.9147 32.746 23.9763 32.2938 26.3676C31.6478 29.7948 29.9308 31.7441 26.2271 32.44L20.5888 33.5473C20.4279 34.446 19.8986 36.877 20.1751 38.3447C20.6908 41.1009 22.6197 43.9558 26.932 44C36.324 44 44 36.3919 44 27C44 17.6081 36.392 10 27 10Z" fill="url(#paint1_linear_0_385)"/>
<defs>
<linearGradient id="paint0_linear_0_385" x1="10" y1="44" x2="36.7557" y2="11.9052" gradientUnits="userSpaceOnUse">
<stop stop-color="#D2DFFF"/>
<stop offset="1" stop-color="#4E7FFF"/>
</linearGradient>
<linearGradient id="paint1_linear_0_385" x1="44" y1="10" x2="16.8249" y2="41.1462" gradientUnits="userSpaceOnUse">
<stop stop-color="#D2DFFF"/>
<stop offset="1" stop-color="#4E7FFF"/>
</linearGradient>
</defs>
</svg>
