<svg width="54" height="54" viewBox="0 0 54 54" fill="none" xmlns="http://www.w3.org/2000/svg">
<rect width="54" height="54" rx="10" fill="#2C2C2C"/>
<path d="M26.4906 7.13208H33.1132C36.7708 7.13208 39.7359 10.0971 39.7359 13.7547C39.7359 17.4123 36.7708 20.3774 33.1132 20.3774H26.4906V7.13208Z" fill="#FF7362"/>
<rect x="26.4907" y="20.377" width="13.2453" height="13.2453" rx="6.62264" fill="#19BCFE"/>
<path d="M13.2453 13.7547C13.2453 10.0971 16.2103 7.13208 19.8679 7.13208H26.4906V20.3774H19.8679C16.2103 20.3774 13.2453 17.4123 13.2453 13.7547Z" fill="#F14E1C"/>
<path d="M13.2451 26.9996C13.2451 23.342 16.2102 20.377 19.8678 20.377H26.4904V33.6222H19.8678C16.2102 33.6222 13.2451 30.6572 13.2451 26.9996Z" fill="#A25AFF"/>
<path d="M13.2451 40.2457C13.2451 36.5881 16.2102 33.623 19.8678 33.623H26.4904V40.2457C26.4904 43.9033 23.5253 46.8683 19.8678 46.8683C16.2102 46.8683 13.2451 43.9033 13.2451 40.2457Z" fill="#0ACF84"/>
</svg>
