<svg width="54" height="54" viewBox="0 0 54 54" fill="none" xmlns="http://www.w3.org/2000/svg">
<g clip-path="url(#clip0_0_398)">
<rect width="54" height="54" rx="16" fill="#2C2C2C"/>
<path d="M33.92 12.0982C34.0571 12.1653 38.0675 14.0786 40.026 15.0134C40.6728 15.3219 41.0833 15.9737 41.0833 16.6898V36.2752C41.0833 36.9905 40.6757 37.6417 40.0311 37.9516C38.1732 38.847 34.4815 40.6247 34.2357 40.7413C34.0549 40.8274 33.5795 41.0833 33.1945 41.0833C32.7001 41.0833 32.3683 40.8529 32.0424 40.551L33.7917 35.0393V13.1672L32.1481 12.3396C32.4996 11.9961 32.9867 11.9167 33.2747 11.9167C33.5386 11.9167 33.7537 12.0173 33.92 12.0982Z" fill="url(#paint0_linear_0_398)"/>
<path d="M15.5625 33.7158L33.7917 19.8449V13.251C33.7917 12.3039 32.5798 11.9327 32.0876 12.3877C31.61 12.8281 12.3965 30.3201 12.3965 30.3201C11.7402 30.9253 11.7774 31.9731 12.4745 32.5309C12.4745 32.5309 13.4399 33.4293 13.7892 33.6786C14.3258 34.0615 15.0309 34.1052 15.5625 33.7158Z" fill="url(#paint1_linear_0_398)"/>
<path d="M15.5625 19.2842L33.7917 33.1777V39.5732C33.7917 40.4468 32.7563 41.1723 32.0424 40.551L12.3965 22.6799C11.7402 22.0747 11.7774 21.0269 12.4745 20.4691C12.4745 20.4691 13.4399 19.5707 13.7892 19.3213C14.3258 18.9385 15.0309 18.8948 15.5625 19.2842Z" fill="#0288D1"/>
</g>
<defs>
<linearGradient id="paint0_linear_0_398" x1="36.5625" y1="40.6239" x2="36.5625" y2="14.4104" gradientUnits="userSpaceOnUse">
<stop stop-color="#29B6F6"/>
<stop offset="1" stop-color="#13B2F6"/>
</linearGradient>
<linearGradient id="paint1_linear_0_398" x1="13.437" y1="34.3757" x2="34.3699" y2="14.2303" gradientUnits="userSpaceOnUse">
<stop offset="0.115" stop-color="#0076BB"/>
<stop offset="0.257" stop-color="#0069B0"/>
<stop offset="0.28" stop-color="#0069B0"/>
<stop offset="0.424" stop-color="#0069B0"/>
<stop offset="0.491" stop-color="#0072B7"/>
<stop offset="0.577" stop-color="#0076BB"/>
<stop offset="0.795" stop-color="#0076BB"/>
<stop offset="1" stop-color="#006EB9"/>
</linearGradient>
<clipPath id="clip0_0_398">
<rect width="54" height="54" rx="16" fill="white"/>
</clipPath>
</defs>
</svg>
