<svg width="54" height="54" viewBox="0 0 54 54" fill="none" xmlns="http://www.w3.org/2000/svg">
<rect width="54" height="54" rx="16" fill="#2C2C2C"/>
<path d="M23.0645 24.4232L31.1313 28.1193L39.266 20.9468C39.3861 20.3542 39.4435 19.7505 39.4372 19.1458C39.4388 17.1933 38.8185 15.2917 37.6673 13.7196C36.5162 12.1474 34.8946 10.9874 33.0402 10.4095C31.1858 9.83159 29.1961 9.86616 27.3627 10.5082C25.5293 11.1502 23.9485 12.3658 22.852 13.977L21.4922 21.0408L23.0645 24.4232Z" fill="#FED10A"/>
<path d="M14.7177 33.0061C14.5976 33.609 14.5403 34.2228 14.5465 34.8377C14.5492 36.7979 15.1761 38.7058 16.3353 40.2817C17.4945 41.8576 19.1251 43.0187 20.9882 43.5948C22.8513 44.1709 24.8489 44.1318 26.6882 43.4832C28.5276 42.8346 30.112 41.6106 31.2094 39.9905L32.545 32.9584L30.7614 29.5138L22.6631 25.8018L14.7177 33.0061Z" fill="#24BBB1"/>
<path d="M14.6718 18.9724L20.1985 20.2838L21.4127 13.9721C20.6619 13.3973 19.7462 13.0828 18.8026 13.0756C17.8591 13.0684 16.9387 13.3689 16.1794 13.9322C15.42 14.4954 14.8627 15.2911 14.5909 16.1997C14.3191 17.1084 14.3474 18.0813 14.6718 18.9724Z" fill="#EF5098"/>
<path d="M14.1883 20.3045C12.9927 20.6998 11.9482 21.4579 11.1985 22.4745C10.4488 23.4912 10.0306 24.7164 10.0016 25.9818C9.9726 27.2472 10.3341 28.4905 11.0364 29.5409C11.7387 30.5912 12.7474 31.3969 13.9236 31.8472L21.6795 24.8017L20.2626 21.749L14.1883 20.3045Z" fill="#17A8E0"/>
<path d="M32.6122 39.9904C33.3623 40.5633 34.2767 40.8764 35.2185 40.8828C36.1604 40.8891 37.0789 40.5885 37.8365 40.0257C38.5942 39.463 39.1501 38.6686 39.4212 37.7615C39.6922 36.8543 39.6636 35.8833 39.3398 34.9938L33.8264 33.6934L32.6122 39.9904Z" fill="#93C83E"/>
<path d="M33.7326 32.2379L39.8033 33.6629C41.0007 33.2691 42.0472 32.5115 42.7986 31.4945C43.55 30.4775 43.9693 29.2512 43.9987 27.9846C44.0281 26.7179 43.6662 25.4733 42.9629 24.4221C42.2596 23.3709 41.2494 22.565 40.0716 22.1154L32.1299 29.1157L33.7326 32.2379Z" fill="#0779A1"/>
</svg>
