<svg width="54" height="54" viewBox="0 0 54 54" fill="none" xmlns="http://www.w3.org/2000/svg">
<rect width="54" height="54" rx="16" fill="#2C2C2C"/>
<path d="M21.5001 31.5V20.5L35.6992 40.025C32.1854 42.2075 27.98 42.9907 23.9162 42.2193C19.8523 41.4479 16.2264 39.1782 13.7567 35.8599C11.2871 32.5416 10.1539 28.4168 10.5817 24.3025C11.0094 20.1882 12.9669 16.3847 16.0663 13.6454C19.1657 10.9061 23.181 9.43082 27.3166 9.5119C31.4523 9.59298 35.4066 11.2245 38.3963 14.0831C41.386 16.9418 43.1929 20.8192 43.459 24.947C43.7252 29.0749 42.4312 33.1522 39.8334 36.3711" stroke="white" stroke-width="2" stroke-linecap="round" stroke-linejoin="round"/>
<path d="M32.5 26V20.5" stroke="white" stroke-width="2" stroke-linecap="round" stroke-linejoin="round"/>
</svg>
