<svg width="54" height="54" viewBox="0 0 54 54" fill="none" xmlns="http://www.w3.org/2000/svg">
<rect width="54" height="54" rx="10" fill="#2C2C2C"/>
<path d="M9.56921 23.3861V20.9408C10.3843 20.6066 11.2116 20.2643 12.0512 19.9138C12.8989 19.5633 13.7384 19.2169 14.5698 18.8745L17.2229 17.7864V17.5418L14.5698 16.4537C13.7384 16.1032 12.8989 15.7568 12.0512 15.4144C11.2116 15.064 10.3843 14.7216 9.56921 14.3874V11.9421C10.3598 12.26 11.126 12.5738 11.8678 12.8836C12.6095 13.1852 13.3105 13.4704 13.9707 13.7394L16.3549 14.7175C16.9906 14.9784 17.6794 15.2636 18.4211 15.5734C19.171 15.875 19.9372 16.1847 20.7197 16.5026V18.8256C19.9372 19.1435 19.171 19.4532 18.4211 19.7548C17.6794 20.0564 16.9906 20.3417 16.3549 20.6107L13.9707 21.5888C13.3105 21.8578 12.6095 22.1471 11.8678 22.4569C11.126 22.7584 10.3598 23.0682 9.56921 23.3861Z" fill="white"/>
<path d="M21.8999 28.3255V26.1737C22.6906 26.1737 23.4568 26.1737 24.1985 26.1737C24.9402 26.1737 25.6331 26.1737 26.277 26.1737H28.0865C28.7304 26.1737 29.4232 26.1737 30.165 26.1737C30.9067 26.1737 31.6729 26.1737 32.4636 26.1737V28.3255C31.6729 28.3255 30.9067 28.3255 30.165 28.3255C29.4232 28.3255 28.7304 28.3255 28.0865 28.3255H26.277C25.6331 28.3255 24.9402 28.3255 24.1985 28.3255C23.4568 28.3255 22.6906 28.3255 21.8999 28.3255Z" fill="white"/>
</svg>
