<svg width="54" height="54" viewBox="0 0 54 54" fill="none" xmlns="http://www.w3.org/2000/svg">
<g clip-path="url(#clip0_0_407)">
<rect width="54" height="54" rx="16" fill="#2C2C2C"/>
<g clip-path="url(#clip1_0_407)">
<path d="M42.526 32.5321C38.3348 33.3941 38.0467 31.9792 38.0467 31.9792C42.4719 25.4323 44.3218 17.1219 42.7254 15.088C38.3702 9.53987 30.8313 12.1638 30.7055 12.2319L30.665 12.2391C29.837 12.0677 28.9103 11.9657 27.8688 11.9487C25.9724 11.9177 24.5338 12.4444 23.4423 13.2698C23.4423 13.2698 9.99356 7.74571 10.619 20.2173C10.7521 22.8705 14.4331 40.2928 18.8236 35.0305C20.4284 33.1062 21.9788 31.4792 21.9788 31.4792C22.749 31.9893 23.6709 32.2495 24.6374 32.156L24.7125 32.0925C24.6892 32.3314 24.6998 32.5651 24.7426 32.8417C23.6115 34.1017 23.9439 34.3229 21.6828 34.787C19.3949 35.2571 20.739 36.0941 21.6165 36.3128C22.6803 36.5781 25.1415 36.9538 26.8045 34.6327L26.7381 34.8976C27.1813 35.2515 27.4925 37.1996 27.4404 38.9656C27.3882 40.7317 27.3534 41.9442 27.7026 42.8912C28.0518 43.8383 28.3998 45.9692 31.3721 45.3341C33.8558 44.8035 35.1429 43.4282 35.3219 41.1343C35.449 39.5035 35.7365 39.7445 35.7547 38.2865L35.9853 37.5962C36.2513 35.3855 36.0275 34.6723 37.5577 35.0041L37.9296 35.0366C39.0558 35.0877 40.5298 34.856 41.3949 34.4551C43.2578 33.5931 44.3626 32.1539 42.5258 32.5321H42.526Z" fill="#336791"/>
<path d="M26.9861 33.7994C26.8707 37.9129 27.0151 42.0551 27.4187 43.0618C27.8227 44.0685 28.6871 46.0266 31.6597 45.3916C34.1431 44.8608 35.0467 43.8335 35.4388 41.566C35.7276 39.8977 36.2844 35.2644 36.3558 34.3151" stroke="#2C2C2C" stroke-width="1.03859" stroke-linecap="round" stroke-linejoin="round"/>
<path d="M23.4223 13.1778C23.4223 13.1778 9.96445 7.69354 10.5901 20.1651C10.7232 22.8183 14.4044 40.2412 18.7948 34.9786C20.3992 33.0541 21.8502 31.5447 21.8502 31.5447" stroke="#2C2C2C" stroke-width="1.03859" stroke-linecap="round" stroke-linejoin="round"/>
<path d="M30.6917 12.1769C30.2259 12.3225 38.1778 9.27847 42.697 15.036C44.2933 17.07 42.4434 25.3804 38.0183 31.9275" stroke="#2C2C2C" stroke-width="1.03859" stroke-linecap="round" stroke-linejoin="round"/>
<path d="M38.0179 31.9275C38.0179 31.9275 38.3063 33.3427 42.4975 32.4802C44.3339 32.102 43.2288 33.5414 41.3663 34.4038C39.8378 35.1111 36.411 35.2923 36.355 34.3149C36.2109 31.7932 38.1585 32.5593 38.0179 31.9275ZM38.0179 31.9275C37.8909 31.3584 37.0199 30.7999 36.4438 29.4072C35.9408 28.1915 29.5453 18.8692 38.2174 20.2537C38.5351 20.1882 35.9556 12.0292 27.8397 11.8965C19.7256 11.7639 19.9918 21.8457 19.9918 21.8457" stroke="#2C2C2C" stroke-width="1.03859" stroke-linecap="round" stroke-linejoin="bevel"/>
<path d="M24.7146 32.79C23.5834 34.0499 23.9161 34.2711 21.6549 34.7353C19.367 35.2055 20.7112 36.0423 21.5885 36.261C22.6523 36.5264 25.1135 36.9021 26.7765 34.5805C27.2829 33.8736 26.7735 32.7457 26.0778 32.4582C25.7417 32.3193 25.2923 32.1454 24.7146 32.79Z" stroke="#2C2C2C" stroke-width="1.03859" stroke-linecap="round" stroke-linejoin="round"/>
<path d="M24.6394 32.7681C24.5254 32.0273 24.8835 31.1458 25.2673 30.1145C25.844 28.5671 27.1747 27.0196 26.1102 22.1112C25.3168 18.4535 19.9949 21.35 19.9916 21.8459C19.9883 22.3417 20.2323 24.3598 19.9027 26.7098C19.4726 29.7763 21.8597 32.3698 24.6085 32.1045" stroke="#2C2C2C" stroke-width="1.03859" stroke-linecap="round" stroke-linejoin="round"/>
<path d="M23.3732 21.7714C23.3492 21.9408 23.6843 22.3928 24.1211 22.4532C24.5572 22.5139 24.9305 22.1606 24.9541 21.9914C24.9778 21.822 24.6432 21.6354 24.2062 21.5748C23.7698 21.5141 23.3964 21.6025 23.3733 21.7714H23.3732Z" fill="#2C2C2C" stroke="#2C2C2C" stroke-width="0.346193"/>
<path d="M36.6575 21.426C36.6812 21.5954 36.3466 22.0474 35.9097 22.1078C35.4732 22.1685 35.1 21.8152 35.076 21.646C35.053 21.4766 35.3877 21.29 35.8242 21.2294C36.2607 21.1688 36.6339 21.2571 36.6575 21.4261V21.426Z" fill="#2C2C2C" stroke="#2C2C2C" stroke-width="0.173097"/>
<path d="M38.217 20.2538C38.2889 21.5825 37.93 22.4875 37.8848 23.9019C37.8178 25.9578 38.8679 28.311 37.2856 30.6671" stroke="#2C2C2C" stroke-width="1.03859" stroke-linecap="round" stroke-linejoin="round"/>
</g>
</g>
<defs>
<clipPath id="clip0_0_407">
<rect width="54" height="54" rx="16" fill="white"/>
</clipPath>
<clipPath id="clip1_0_407">
<rect width="36" height="37" fill="white" transform="translate(9 9.99988)"/>
</clipPath>
</defs>
</svg>
