<svg width="54" height="54" viewBox="0 0 54 54" fill="none" xmlns="http://www.w3.org/2000/svg">
<rect width="54" height="54" rx="16" fill="#2C2C2C"/>
<path fill-rule="evenodd" clip-rule="evenodd" d="M40.2485 12H19.2169V23.2166H29.0321C29.9995 23.2166 30.7837 24.0007 30.7837 24.9681V34.7835H42V13.7515C42 12.7842 41.2158 12 40.2485 12Z" fill="#8E76FF"/>
<path fill-rule="evenodd" clip-rule="evenodd" d="M19.2163 12.0001V23.2166H10.1143C9.33406 23.2166 8.94331 22.2733 9.49501 21.7216L19.2163 12.0001Z" fill="#8E76FF" fill-opacity="0.55"/>
<path fill-rule="evenodd" clip-rule="evenodd" d="M32.2787 44.5049C31.727 45.0567 30.7837 44.6659 30.7837 43.8857V34.7835H42L32.2787 44.5049Z" fill="#8E76FF" fill-opacity="0.55"/>
<path d="M19.2168 23.2165H29.9079C30.3915 23.2165 30.7836 23.6086 30.7836 24.0923V34.7835H20.9683C20.001 34.7835 19.2168 33.9993 19.2168 33.0319V23.2165Z" fill="#8E76FF" fill-opacity="0.55"/>
</svg>
