<svg width="54" height="54" viewBox="0 0 54 54" fill="none" xmlns="http://www.w3.org/2000/svg">
<rect width="54" height="54" rx="16" fill="#2C2C2C"/>
<path d="M26.663 10C18.1414 10 18.6735 13.7772 18.6735 13.7772L18.683 17.6904H26.815V18.8653H15.453C15.453 18.8653 10 18.2332 10 27.0217C10 35.8103 14.7595 35.4986 14.7595 35.4986H17.6V31.4204C17.6 31.4204 17.4469 26.5557 22.2835 26.5557H30.349C30.349 26.5557 34.8805 26.6305 34.8805 22.0793V14.554C34.8805 14.554 35.5685 10 26.663 10ZM22.179 12.6314C22.9881 12.6314 23.642 13.2998 23.642 14.1268C23.642 14.9537 22.9881 15.6221 22.179 15.6221C21.3699 15.6221 20.716 14.9537 20.716 14.1268C20.716 13.2998 21.3699 12.6314 22.179 12.6314Z" fill="url(#paint0_linear_0_377)"/>
<path d="M26.9306 44C35.6601 44 35.1149 40.2228 35.1149 40.2228L35.1052 36.3096H26.7749V35.1347H38.414C38.414 35.1347 44 35.7668 44 26.9783C44 18.1897 39.1244 18.5014 39.1244 18.5014H36.2146V22.5796C36.2146 22.5796 36.3715 27.4443 31.4169 27.4443H23.1547C23.1547 27.4443 18.5126 27.3695 18.5126 31.9207V39.446C18.5126 39.446 17.8078 44 26.9306 44ZM31.5239 41.3686C30.6951 41.3686 30.0252 40.7002 30.0252 39.8732C30.0252 39.0463 30.6951 38.3779 31.5239 38.3779C32.3527 38.3779 33.0226 39.0463 33.0226 39.8732C33.0226 40.7002 32.3527 41.3686 31.5239 41.3686Z" fill="url(#paint1_linear_0_377)"/>
<defs>
<linearGradient id="paint0_linear_0_377" x1="835.844" y1="792.862" x2="5186.19" y2="4990.17" gradientUnits="userSpaceOnUse">
<stop stop-color="#387EB8"/>
<stop offset="1" stop-color="#366994"/>
</linearGradient>
<linearGradient id="paint1_linear_0_377" x1="1267.14" y1="1356.66" x2="5942.11" y2="5768.6" gradientUnits="userSpaceOnUse">
<stop stop-color="#FFE052"/>
<stop offset="1" stop-color="#FFC331"/>
</linearGradient>
</defs>
</svg>
