<svg width="54" height="54" viewBox="0 0 54 54" fill="none" xmlns="http://www.w3.org/2000/svg">
<g clip-path="url(#clip0_0_404)">
<rect width="54" height="54" rx="16" fill="#2C2C2C"/>
<path d="M42.3967 25.5747L28.4243 11.6035C27.6204 10.7988 26.3154 10.7988 25.5105 11.6035L22.6093 14.5051L26.2894 18.1854C27.1449 17.8965 28.1255 18.0902 28.8071 18.772C29.4923 19.458 29.6846 20.447 29.3885 21.3055L32.9354 24.8525C33.7936 24.5568 34.7836 24.7479 35.4688 25.4343C36.4268 26.3921 36.4268 27.9439 35.4688 28.9019C34.5107 29.8602 32.9589 29.8602 32.0003 28.9019C31.2799 28.181 31.1018 27.1226 31.4666 26.2351L28.1587 22.927L28.1584 31.6321C28.392 31.7477 28.6124 31.9021 28.807 32.0958C29.7647 33.0535 29.7647 34.6051 28.807 35.5643C27.849 36.5219 26.2965 36.5219 25.3395 35.5643C24.3817 34.6052 24.3817 33.0535 25.3395 32.0958C25.5762 31.8596 25.8501 31.6807 26.1424 31.5608V22.7748C25.85 22.6554 25.5764 22.4779 25.3394 22.2397C24.6139 21.5148 24.4391 20.4499 24.8112 19.5589L21.1834 15.9304L11.6037 25.5102C10.7988 26.3155 10.7988 27.6205 11.6037 28.4253L25.5752 42.3965C26.3796 43.2012 27.6841 43.2012 28.4896 42.3965L42.3965 28.4913C43.2012 27.6862 43.2012 26.3808 42.3965 25.5759" fill="#E34D32"/>
</g>
<defs>
<clipPath id="clip0_0_404">
<rect width="54" height="54" rx="16" fill="white"/>
</clipPath>
</defs>
</svg>
