<svg width="0" height="0" class="hidden">
  <symbol fill="none" xmlns="http://www.w3.org/2000/svg" viewBox="0 0 54 54" id="icon-doc">
    <rect width="54" height="54" rx="10" fill="#2C2C2C"></rect>
    <path d="M13.2454 11.2072C13.2454 9.51913 14.6139 8.15063 16.302 8.15063H27.5096H31.585L41.7737 18.3393V25.4714V39.7355C41.7737 41.4237 40.4052 42.7921 38.7171 42.7921H16.302C14.6139 42.7921 13.2454 41.4237 13.2454 39.7355V11.2072Z" fill="white"></path>
    <path d="M31.585 8.15063L41.7737 18.3393H31.585V8.15063Z" fill="#ADAFB6"></path>
    <rect x="19.3587" y="22.4143" width="16.3019" height="2.03774" fill="#9EA2AE"></rect>
    <rect x="19.3586" y="27.509" width="16.3019" height="2.03774" fill="#9EA2AE"></rect>
    <rect x="19.3587" y="32.6038" width="11.2075" height="2.03774" fill="#9EA2AE"></rect>
  </symbol>
  <symbol fill="none" xmlns="http://www.w3.org/2000/svg" viewBox="0 0 41 41" id="icon-doc-link">
    <g clip-path="url(#clip0_0_323)">
      <path d="M4.24536 4.20761C4.24536 2.51949 5.61385 1.151 7.30197 1.151H18.5095H22.585L32.7737 11.3397V18.4718V32.7359C32.7737 34.424 31.4052 35.7925 29.7171 35.7925H7.30196C5.61385 35.7925 4.24536 34.424 4.24536 32.7359V4.20761Z" fill="url(#paint0_linear_0_323)"></path>
      <path d="M22.5851 1.15106L32.7738 11.3397H22.5851V1.15106Z" fill="#ADAFB6"></path>
      <rect x="10.3588" y="15.4152" width="16.3019" height="2.03774" fill="#9EA2AE"></rect>
      <rect x="10.3588" y="20.5096" width="16.3019" height="2.03774" fill="#9EA2AE"></rect>
      <rect x="10.3588" y="25.6039" width="11.2075" height="2.03774" fill="#9EA2AE"></rect>
      <path d="M28.1073 27.3505L22.7702 32.6875C21.24 34.2178 21.24 36.6989 22.7702 38.2292V38.2292C24.3005 39.7594 26.7816 39.7594 28.3118 38.2292L33.6489 32.8921" stroke="#141414" stroke-width="6.5" stroke-linecap="round"></path>
      <path d="M33.9498 32.5919L36.2293 30.3124C37.7596 28.7822 37.7596 26.3011 36.2293 24.7708V24.7708C34.699 23.2405 32.2179 23.2405 30.6877 24.7708L28.4082 27.0503" stroke="#141414" stroke-width="6.5" stroke-linecap="round"></path>
      <path d="M31.4788 29.5208L26.7288 34.2707" stroke="#141414" stroke-width="6.5" stroke-linecap="round"></path>
      <path d="M25.0773 30.3806L22.7703 32.6875C21.2401 34.2178 21.2401 36.6988 22.7703 38.2291V38.2291C24.3006 39.7594 26.7817 39.7594 28.312 38.2291L30.6189 35.9222" stroke="#ADAFB6" stroke-width="2" stroke-linecap="round"></path>
      <path d="M33.9498 32.5919L36.2293 30.3124C37.7596 28.7822 37.7596 26.3011 36.2293 24.7708V24.7708C34.699 23.2405 32.2179 23.2405 30.6877 24.7708L28.4082 27.0503" stroke="#ADAFB6" stroke-width="2" stroke-linecap="round"></path>
      <path d="M31.4788 29.5208L26.7288 34.2707" stroke="#ADAFB6" stroke-width="2" stroke-linecap="round"></path>
    </g>
    <defs>
      <linearGradient id="paint0_linear_0_323" x1="5.50024" y1="2.00006" x2="33.0002" y2="29.5001" gradientUnits="userSpaceOnUse">
        <stop offset="0.65" stop-color="white"></stop>
        <stop offset="1" stop-color="white"></stop>
      </linearGradient>
      <clipPath id="clip0_0_323">
        <rect width="41" height="41" fill="white"></rect>
      </clipPath>
    </defs>
  </symbol>
  <symbol fill="none" xmlns="http://www.w3.org/2000/svg" viewBox="0 0 54 54" id="icon-elastic-search">
    <rect width="54" height="54" rx="16" fill="#2C2C2C"></rect>
    <path d="M23.0645 24.4232L31.1313 28.1193L39.266 20.9468C39.3861 20.3542 39.4435 19.7505 39.4372 19.1458C39.4388 17.1933 38.8185 15.2917 37.6673 13.7196C36.5162 12.1474 34.8946 10.9874 33.0402 10.4095C31.1858 9.83159 29.1961 9.86616 27.3627 10.5082C25.5293 11.1502 23.9485 12.3658 22.852 13.977L21.4922 21.0408L23.0645 24.4232Z" fill="#FED10A"></path>
    <path d="M14.7177 33.0061C14.5976 33.609 14.5403 34.2228 14.5465 34.8377C14.5492 36.7979 15.1761 38.7058 16.3353 40.2817C17.4945 41.8576 19.1251 43.0187 20.9882 43.5948C22.8513 44.1709 24.8489 44.1318 26.6882 43.4832C28.5276 42.8346 30.112 41.6106 31.2094 39.9905L32.545 32.9584L30.7614 29.5138L22.6631 25.8018L14.7177 33.0061Z" fill="#24BBB1"></path>
    <path d="M14.6718 18.9724L20.1985 20.2838L21.4127 13.9721C20.6619 13.3973 19.7462 13.0828 18.8026 13.0756C17.8591 13.0684 16.9387 13.3689 16.1794 13.9322C15.42 14.4954 14.8627 15.2911 14.5909 16.1997C14.3191 17.1084 14.3474 18.0813 14.6718 18.9724Z" fill="#EF5098"></path>
    <path d="M14.1883 20.3045C12.9927 20.6998 11.9482 21.4579 11.1985 22.4745C10.4488 23.4912 10.0306 24.7164 10.0016 25.9818C9.9726 27.2472 10.3341 28.4905 11.0364 29.5409C11.7387 30.5912 12.7474 31.3969 13.9236 31.8472L21.6795 24.8017L20.2626 21.749L14.1883 20.3045Z" fill="#17A8E0"></path>
    <path d="M32.6122 39.9904C33.3623 40.5633 34.2767 40.8764 35.2185 40.8828C36.1604 40.8891 37.0789 40.5885 37.8365 40.0257C38.5942 39.463 39.1501 38.6686 39.4212 37.7615C39.6922 36.8543 39.6636 35.8833 39.3398 34.9938L33.8264 33.6934L32.6122 39.9904Z" fill="#93C83E"></path>
    <path d="M33.7326 32.2379L39.8033 33.6629C41.0007 33.2691 42.0472 32.5115 42.7986 31.4945C43.55 30.4775 43.9693 29.2512 43.9987 27.9846C44.0281 26.7179 43.6662 25.4733 42.9629 24.4221C42.2596 23.3709 41.2494 22.565 40.0716 22.1154L32.1299 29.1157L33.7326 32.2379Z" fill="#0779A1"></path>
  </symbol>
  <symbol fill="none" xmlns="http://www.w3.org/2000/svg" viewBox="0 0 27 54" id="icon-etc">
    <g clip-path="url(#clip0_0_422)">
      <rect width="27" height="54" rx="13.5" fill="url(#paint0_linear_0_422)"></rect>
    </g>
    <defs>
      <linearGradient id="paint0_linear_0_422" x1="0" y1="27" x2="27" y2="27" gradientUnits="userSpaceOnUse">
        <stop stop-color="#2C2C2C"></stop>
        <stop offset="1" stop-color="#2C2C2C" stop-opacity="0"></stop>
      </linearGradient>
      <clipPath id="clip0_0_422">
        <rect width="27" height="54" rx="13.5" fill="white"></rect>
      </clipPath>
    </defs>
  </symbol>
  <symbol fill="none" xmlns="http://www.w3.org/2000/svg" viewBox="0 0 54 54" id="icon-figma">
    <rect width="54" height="54" rx="10" fill="#2C2C2C"></rect>
    <path d="M26.4906 7.13208H33.1132C36.7708 7.13208 39.7359 10.0971 39.7359 13.7547C39.7359 17.4123 36.7708 20.3774 33.1132 20.3774H26.4906V7.13208Z" fill="#FF7362"></path>
    <rect x="26.4907" y="20.377" width="13.2453" height="13.2453" rx="6.62264" fill="#19BCFE"></rect>
    <path d="M13.2453 13.7547C13.2453 10.0971 16.2103 7.13208 19.8679 7.13208H26.4906V20.3774H19.8679C16.2103 20.3774 13.2453 17.4123 13.2453 13.7547Z" fill="#F14E1C"></path>
    <path d="M13.2451 26.9996C13.2451 23.342 16.2102 20.377 19.8678 20.377H26.4904V33.6222H19.8678C16.2102 33.6222 13.2451 30.6572 13.2451 26.9996Z" fill="#A25AFF"></path>
    <path d="M13.2451 40.2457C13.2451 36.5881 16.2102 33.623 19.8678 33.623H26.4904V40.2457C26.4904 43.9033 23.5253 46.8683 19.8678 46.8683C16.2102 46.8683 13.2451 43.9033 13.2451 40.2457Z" fill="#0ACF84"></path>
  </symbol>
  <symbol fill="none" xmlns="http://www.w3.org/2000/svg" viewBox="0 0 54 54" id="icon-git">
    <g clip-path="url(#clip0_0_404)">
      <rect width="54" height="54" rx="16" fill="#2C2C2C"></rect>
      <path d="M42.3967 25.5747L28.4243 11.6035C27.6204 10.7988 26.3154 10.7988 25.5105 11.6035L22.6093 14.5051L26.2894 18.1854C27.1449 17.8965 28.1255 18.0902 28.8071 18.772C29.4923 19.458 29.6846 20.447 29.3885 21.3055L32.9354 24.8525C33.7936 24.5568 34.7836 24.7479 35.4688 25.4343C36.4268 26.3921 36.4268 27.9439 35.4688 28.9019C34.5107 29.8602 32.9589 29.8602 32.0003 28.9019C31.2799 28.181 31.1018 27.1226 31.4666 26.2351L28.1587 22.927L28.1584 31.6321C28.392 31.7477 28.6124 31.9021 28.807 32.0958C29.7647 33.0535 29.7647 34.6051 28.807 35.5643C27.849 36.5219 26.2965 36.5219 25.3395 35.5643C24.3817 34.6052 24.3817 33.0535 25.3395 32.0958C25.5762 31.8596 25.8501 31.6807 26.1424 31.5608V22.7748C25.85 22.6554 25.5764 22.4779 25.3394 22.2397C24.6139 21.5148 24.4391 20.4499 24.8112 19.5589L21.1834 15.9304L11.6037 25.5102C10.7988 26.3155 10.7988 27.6205 11.6037 28.4253L25.5752 42.3965C26.3796 43.2012 27.6841 43.2012 28.4896 42.3965L42.3965 28.4913C43.2012 27.6862 43.2012 26.3808 42.3965 25.5759" fill="#E34D32"></path>
    </g>
    <defs>
      <clipPath id="clip0_0_404">
        <rect width="54" height="54" rx="16" fill="white"></rect>
      </clipPath>
    </defs>
  </symbol>
  <symbol fill="none" xmlns="http://www.w3.org/2000/svg" viewBox="0 0 54 54" id="icon-github">
    <g clip-path="url(#clip0_0_394)">
      <rect width="54" height="54" rx="16" fill="#2C2C2C"></rect>
      <g clip-path="url(#clip1_0_394)">
        <path fill-rule="evenodd" clip-rule="evenodd" d="M26.9493 10C17.5768 10 10 17.7917 10 27.431C10 35.1363 14.8547 41.6586 21.5895 43.9671C22.4315 44.1406 22.7399 43.592 22.7399 43.1305C22.7399 42.7264 22.7122 41.3413 22.7122 39.898C17.9973 40.9372 17.0154 37.8201 17.0154 37.8201C16.2577 35.8 15.135 35.2808 15.135 35.2808C13.5919 34.213 15.2474 34.213 15.2474 34.213C16.9592 34.3284 17.8575 36.0022 17.8575 36.0022C19.3726 38.657 21.814 37.9069 22.7961 37.4451C22.9363 36.3195 23.3856 35.5404 23.8626 35.1076C20.1022 34.7035 16.1457 33.2029 16.1457 26.5074C16.1457 24.6026 16.8187 23.0443 17.8852 21.8324C17.717 21.3996 17.1275 19.61 18.0538 17.2147C18.0538 17.2147 19.485 16.7529 22.7118 19.004C24.0934 18.6224 25.5181 18.4283 26.9493 18.4267C28.3805 18.4267 29.8393 18.6289 31.1865 19.004C34.4137 16.7529 35.8449 17.2147 35.8449 17.2147C36.7712 19.61 36.1814 21.3996 36.0131 21.8324C37.1077 23.0443 37.753 24.6026 37.753 26.5074C37.753 33.2029 33.7965 34.6744 30.008 35.1076C30.6255 35.6558 31.1584 36.6946 31.1584 38.3397C31.1584 40.6772 31.1307 42.5532 31.1307 43.1302C31.1307 43.592 31.4394 44.1406 32.2811 43.9674C39.0159 41.6583 43.8706 35.1363 43.8706 27.431C43.8983 17.7917 36.2938 10 26.9493 10Z" fill="#DFDFDF"></path>
      </g>
    </g>
    <defs>
      <clipPath id="clip0_0_394">
        <rect width="54" height="54" rx="16" fill="white"></rect>
      </clipPath>
      <clipPath id="clip1_0_394">
        <rect width="34" height="34" fill="white" transform="translate(10 10)"></rect>
      </clipPath>
    </defs>
  </symbol>
  <symbol fill="none" xmlns="http://www.w3.org/2000/svg" viewBox="0 0 54 54" id="icon-next-js">
    <rect width="54" height="54" rx="16" fill="#2C2C2C"></rect>
    <path d="M21.5001 31.5V20.5L35.6992 40.025C32.1854 42.2075 27.98 42.9907 23.9162 42.2193C19.8523 41.4479 16.2264 39.1782 13.7567 35.8599C11.2871 32.5416 10.1539 28.4168 10.5817 24.3025C11.0094 20.1882 12.9669 16.3847 16.0663 13.6454C19.1657 10.9061 23.181 9.43082 27.3166 9.5119C31.4523 9.59298 35.4066 11.2245 38.3963 14.0831C41.386 16.9418 43.1929 20.8192 43.459 24.947C43.7252 29.0749 42.4312 33.1522 39.8334 36.3711" stroke="white" stroke-width="2" stroke-linecap="round" stroke-linejoin="round"></path>
    <path d="M32.5 26V20.5" stroke="white" stroke-width="2" stroke-linecap="round" stroke-linejoin="round"></path>
  </symbol>
  <symbol fill="none" xmlns="http://www.w3.org/2000/svg" viewBox="0 0 54 54" id="icon-postgre">
    <g clip-path="url(#clip0_0_407)">
      <rect width="54" height="54" rx="16" fill="#2C2C2C"></rect>
      <g clip-path="url(#clip1_0_407)">
        <path d="M42.526 32.5321C38.3348 33.3941 38.0467 31.9792 38.0467 31.9792C42.4719 25.4323 44.3218 17.1219 42.7254 15.088C38.3702 9.53987 30.8313 12.1638 30.7055 12.2319L30.665 12.2391C29.837 12.0677 28.9103 11.9657 27.8688 11.9487C25.9724 11.9177 24.5338 12.4444 23.4423 13.2698C23.4423 13.2698 9.99356 7.74571 10.619 20.2173C10.7521 22.8705 14.4331 40.2928 18.8236 35.0305C20.4284 33.1062 21.9788 31.4792 21.9788 31.4792C22.749 31.9893 23.6709 32.2495 24.6374 32.156L24.7125 32.0925C24.6892 32.3314 24.6998 32.5651 24.7426 32.8417C23.6115 34.1017 23.9439 34.3229 21.6828 34.787C19.3949 35.2571 20.739 36.0941 21.6165 36.3128C22.6803 36.5781 25.1415 36.9538 26.8045 34.6327L26.7381 34.8976C27.1813 35.2515 27.4925 37.1996 27.4404 38.9656C27.3882 40.7317 27.3534 41.9442 27.7026 42.8912C28.0518 43.8383 28.3998 45.9692 31.3721 45.3341C33.8558 44.8035 35.1429 43.4282 35.3219 41.1343C35.449 39.5035 35.7365 39.7445 35.7547 38.2865L35.9853 37.5962C36.2513 35.3855 36.0275 34.6723 37.5577 35.0041L37.9296 35.0366C39.0558 35.0877 40.5298 34.856 41.3949 34.4551C43.2578 33.5931 44.3626 32.1539 42.5258 32.5321H42.526Z" fill="#336791"></path>
        <path d="M26.9861 33.7994C26.8707 37.9129 27.0151 42.0551 27.4187 43.0618C27.8227 44.0685 28.6871 46.0266 31.6597 45.3916C34.1431 44.8608 35.0467 43.8335 35.4388 41.566C35.7276 39.8977 36.2844 35.2644 36.3558 34.3151" stroke="#2C2C2C" stroke-width="1.03859" stroke-linecap="round" stroke-linejoin="round"></path>
        <path d="M23.4223 13.1778C23.4223 13.1778 9.96445 7.69354 10.5901 20.1651C10.7232 22.8183 14.4044 40.2412 18.7948 34.9786C20.3992 33.0541 21.8502 31.5447 21.8502 31.5447" stroke="#2C2C2C" stroke-width="1.03859" stroke-linecap="round" stroke-linejoin="round"></path>
        <path d="M30.6917 12.1769C30.2259 12.3225 38.1778 9.27847 42.697 15.036C44.2933 17.07 42.4434 25.3804 38.0183 31.9275" stroke="#2C2C2C" stroke-width="1.03859" stroke-linecap="round" stroke-linejoin="round"></path>
        <path d="M38.0179 31.9275C38.0179 31.9275 38.3063 33.3427 42.4975 32.4802C44.3339 32.102 43.2288 33.5414 41.3663 34.4038C39.8378 35.1111 36.411 35.2923 36.355 34.3149C36.2109 31.7932 38.1585 32.5593 38.0179 31.9275ZM38.0179 31.9275C37.8909 31.3584 37.0199 30.7999 36.4438 29.4072C35.9408 28.1915 29.5453 18.8692 38.2174 20.2537C38.5351 20.1882 35.9556 12.0292 27.8397 11.8965C19.7256 11.7639 19.9918 21.8457 19.9918 21.8457" stroke="#2C2C2C" stroke-width="1.03859" stroke-linecap="round" stroke-linejoin="bevel"></path>
        <path d="M24.7146 32.79C23.5834 34.0499 23.9161 34.2711 21.6549 34.7353C19.367 35.2055 20.7112 36.0423 21.5885 36.261C22.6523 36.5264 25.1135 36.9021 26.7765 34.5805C27.2829 33.8736 26.7735 32.7457 26.0778 32.4582C25.7417 32.3193 25.2923 32.1454 24.7146 32.79Z" stroke="#2C2C2C" stroke-width="1.03859" stroke-linecap="round" stroke-linejoin="round"></path>
        <path d="M24.6394 32.7681C24.5254 32.0273 24.8835 31.1458 25.2673 30.1145C25.844 28.5671 27.1747 27.0196 26.1102 22.1112C25.3168 18.4535 19.9949 21.35 19.9916 21.8459C19.9883 22.3417 20.2323 24.3598 19.9027 26.7098C19.4726 29.7763 21.8597 32.3698 24.6085 32.1045" stroke="#2C2C2C" stroke-width="1.03859" stroke-linecap="round" stroke-linejoin="round"></path>
        <path d="M23.3732 21.7714C23.3492 21.9408 23.6843 22.3928 24.1211 22.4532C24.5572 22.5139 24.9305 22.1606 24.9541 21.9914C24.9778 21.822 24.6432 21.6354 24.2062 21.5748C23.7698 21.5141 23.3964 21.6025 23.3733 21.7714H23.3732Z" fill="#2C2C2C" stroke="#2C2C2C" stroke-width="0.346193"></path>
        <path d="M36.6575 21.426C36.6812 21.5954 36.3466 22.0474 35.9097 22.1078C35.4732 22.1685 35.1 21.8152 35.076 21.646C35.053 21.4766 35.3877 21.29 35.8242 21.2294C36.2607 21.1688 36.6339 21.2571 36.6575 21.4261V21.426Z" fill="#2C2C2C" stroke="#2C2C2C" stroke-width="0.173097"></path>
        <path d="M38.217 20.2538C38.2889 21.5825 37.93 22.4875 37.8848 23.9019C37.8178 25.9578 38.8679 28.311 37.2856 30.6671" stroke="#2C2C2C" stroke-width="1.03859" stroke-linecap="round" stroke-linejoin="round"></path>
      </g>
    </g>
    <defs>
      <clipPath id="clip0_0_407">
        <rect width="54" height="54" rx="16" fill="white"></rect>
      </clipPath>
      <clipPath id="clip1_0_407">
        <rect width="36" height="37" fill="white" transform="translate(9 9.99988)"></rect>
      </clipPath>
    </defs>
  </symbol>
  <symbol fill="none" xmlns="http://www.w3.org/2000/svg" viewBox="0 0 54 54" id="icon-python">
    <rect width="54" height="54" rx="16" fill="#2C2C2C"></rect>
    <path d="M26.663 10C18.1414 10 18.6735 13.7772 18.6735 13.7772L18.683 17.6904H26.815V18.8653H15.453C15.453 18.8653 10 18.2332 10 27.0217C10 35.8103 14.7595 35.4986 14.7595 35.4986H17.6V31.4204C17.6 31.4204 17.4469 26.5557 22.2835 26.5557H30.349C30.349 26.5557 34.8805 26.6305 34.8805 22.0793V14.554C34.8805 14.554 35.5685 10 26.663 10ZM22.179 12.6314C22.9881 12.6314 23.642 13.2998 23.642 14.1268C23.642 14.9537 22.9881 15.6221 22.179 15.6221C21.3699 15.6221 20.716 14.9537 20.716 14.1268C20.716 13.2998 21.3699 12.6314 22.179 12.6314Z" fill="url(#paint0_linear_0_377)"></path>
    <path d="M26.9306 44C35.6601 44 35.1149 40.2228 35.1149 40.2228L35.1052 36.3096H26.7749V35.1347H38.414C38.414 35.1347 44 35.7668 44 26.9783C44 18.1897 39.1244 18.5014 39.1244 18.5014H36.2146V22.5796C36.2146 22.5796 36.3715 27.4443 31.4169 27.4443H23.1547C23.1547 27.4443 18.5126 27.3695 18.5126 31.9207V39.446C18.5126 39.446 17.8078 44 26.9306 44ZM31.5239 41.3686C30.6951 41.3686 30.0252 40.7002 30.0252 39.8732C30.0252 39.0463 30.6951 38.3779 31.5239 38.3779C32.3527 38.3779 33.0226 39.0463 33.0226 39.8732C33.0226 40.7002 32.3527 41.3686 31.5239 41.3686Z" fill="url(#paint1_linear_0_377)"></path>
    <defs>
      <linearGradient id="paint0_linear_0_377" x1="835.844" y1="792.862" x2="5186.19" y2="4990.17" gradientUnits="userSpaceOnUse">
        <stop stop-color="#387EB8"></stop>
        <stop offset="1" stop-color="#366994"></stop>
      </linearGradient>
      <linearGradient id="paint1_linear_0_377" x1="1267.14" y1="1356.66" x2="5942.11" y2="5768.6" gradientUnits="userSpaceOnUse">
        <stop stop-color="#FFE052"></stop>
        <stop offset="1" stop-color="#FFC331"></stop>
      </linearGradient>
    </defs>
  </symbol>
  <symbol fill="none" xmlns="http://www.w3.org/2000/svg" viewBox="0 0 54 54" id="icon-react-js">
    <rect width="54" height="54" rx="16" fill="#2C2C2C"></rect>
    <ellipse cx="26.8999" cy="26.9943" rx="7.25347" ry="18.8996" transform="rotate(-30.1392 26.8999 26.9943)" stroke="#19BCFE" stroke-width="1.80019"></ellipse>
    <ellipse cx="26.9" cy="26.9943" rx="7.25347" ry="18.8996" transform="rotate(30 26.9 26.9943)" stroke="#19BCFE" stroke-width="1.80019"></ellipse>
    <ellipse cx="26.8997" cy="26.9943" rx="7.25347" ry="18.8996" transform="rotate(90 26.8997 26.9943)" stroke="#19BCFE" stroke-width="1.80019"></ellipse>
    <ellipse cx="26.9011" cy="26.9994" rx="3.60037" ry="3.60037" transform="rotate(90 26.9011 26.9994)" fill="#19BCFE"></ellipse>
  </symbol>
  <symbol fill="none" xmlns="http://www.w3.org/2000/svg" viewBox="0 0 54 54" id="icon-strapi">
    <rect width="54" height="54" rx="16" fill="#2C2C2C"></rect>
    <path fill-rule="evenodd" clip-rule="evenodd" d="M40.2485 12H19.2169V23.2166H29.0321C29.9995 23.2166 30.7837 24.0007 30.7837 24.9681V34.7835H42V13.7515C42 12.7842 41.2158 12 40.2485 12Z" fill="#8E76FF"></path>
    <path fill-rule="evenodd" clip-rule="evenodd" d="M19.2163 12.0001V23.2166H10.1143C9.33406 23.2166 8.94331 22.2733 9.49501 21.7216L19.2163 12.0001Z" fill="#8E76FF" fill-opacity="0.55"></path>
    <path fill-rule="evenodd" clip-rule="evenodd" d="M32.2787 44.5049C31.727 45.0567 30.7837 44.6659 30.7837 43.8857V34.7835H42L32.2787 44.5049Z" fill="#8E76FF" fill-opacity="0.55"></path>
    <path d="M19.2168 23.2165H29.9079C30.3915 23.2165 30.7836 23.6086 30.7836 24.0923V34.7835H20.9683C20.001 34.7835 19.2168 33.9993 19.2168 33.0319V23.2165Z" fill="#8E76FF" fill-opacity="0.55"></path>
  </symbol>
  <symbol fill="none" xmlns="http://www.w3.org/2000/svg" viewBox="0 0 60 60" id="icon-switcher">
    <rect x="1.98113" y="1.98113" width="56.0377" height="56.0377" rx="11.0189" fill="#2C2C2C"></rect>
    <rect x="1.98113" y="1.98113" width="56.0377" height="56.0377" rx="11.0189" stroke="#141414" stroke-width="2.03774"></rect>
    <rect x="13.1887" y="20.3208" width="33.6226" height="20.3774" rx="10.1887" fill="#0ACF84"></rect>
    <g filter="url(#filter0_d_0_81)">
      <rect x="28.4717" y="22.3585" width="16.3019" height="16.3019" rx="8.15094" fill="white"></rect>
    </g>
    <defs>
      <filter id="filter0_d_0_81" x="26.4339" y="22.3585" width="20.3774" height="20.3774" filterUnits="userSpaceOnUse" color-interpolation-filters="sRGB">
        <feFlood flood-opacity="0" result="BackgroundImageFix"></feFlood>
        <feColorMatrix in="SourceAlpha" type="matrix" values="0 0 0 0 0 0 0 0 0 0 0 0 0 0 0 0 0 0 127 0" result="hardAlpha"></feColorMatrix>
        <feOffset dy="2.03774"></feOffset>
        <feGaussianBlur stdDeviation="1.01887"></feGaussianBlur>
        <feComposite in2="hardAlpha" operator="out"></feComposite>
        <feColorMatrix type="matrix" values="0 0 0 0 0 0 0 0 0 0 0 0 0 0 0 0 0 0 0.15 0"></feColorMatrix>
        <feBlend mode="normal" in2="BackgroundImageFix" result="effect1_dropShadow_0_81"></feBlend>
        <feBlend mode="normal" in="SourceGraphic" in2="effect1_dropShadow_0_81" result="shape"></feBlend>
      </filter>
    </defs>
  </symbol>
  <symbol fill="none" xmlns="http://www.w3.org/2000/svg" viewBox="0 0 54 54" id="icon-terminal">
    <rect width="54" height="54" rx="10" fill="#2C2C2C"></rect>
    <path d="M9.56921 23.3861V20.9408C10.3843 20.6066 11.2116 20.2643 12.0512 19.9138C12.8989 19.5633 13.7384 19.2169 14.5698 18.8745L17.2229 17.7864V17.5418L14.5698 16.4537C13.7384 16.1032 12.8989 15.7568 12.0512 15.4144C11.2116 15.064 10.3843 14.7216 9.56921 14.3874V11.9421C10.3598 12.26 11.126 12.5738 11.8678 12.8836C12.6095 13.1852 13.3105 13.4704 13.9707 13.7394L16.3549 14.7175C16.9906 14.9784 17.6794 15.2636 18.4211 15.5734C19.171 15.875 19.9372 16.1847 20.7197 16.5026V18.8256C19.9372 19.1435 19.171 19.4532 18.4211 19.7548C17.6794 20.0564 16.9906 20.3417 16.3549 20.6107L13.9707 21.5888C13.3105 21.8578 12.6095 22.1471 11.8678 22.4569C11.126 22.7584 10.3598 23.0682 9.56921 23.3861Z" fill="white"></path>
    <path d="M21.8999 28.3255V26.1737C22.6906 26.1737 23.4568 26.1737 24.1985 26.1737C24.9402 26.1737 25.6331 26.1737 26.277 26.1737H28.0865C28.7304 26.1737 29.4232 26.1737 30.165 26.1737C30.9067 26.1737 31.6729 26.1737 32.4636 26.1737V28.3255C31.6729 28.3255 30.9067 28.3255 30.165 28.3255C29.4232 28.3255 28.7304 28.3255 28.0865 28.3255H26.277C25.6331 28.3255 24.9402 28.3255 24.1985 28.3255C23.4568 28.3255 22.6906 28.3255 21.8999 28.3255Z" fill="white"></path>
  </symbol>
  <symbol fill="none" xmlns="http://www.w3.org/2000/svg" viewBox="0 0 54 54" id="icon-vs-code">
    <g clip-path="url(#clip0_0_398)">
      <rect width="54" height="54" rx="16" fill="#2C2C2C"></rect>
      <path d="M33.92 12.0982C34.0571 12.1653 38.0675 14.0786 40.026 15.0134C40.6728 15.3219 41.0833 15.9737 41.0833 16.6898V36.2752C41.0833 36.9905 40.6757 37.6417 40.0311 37.9516C38.1732 38.847 34.4815 40.6247 34.2357 40.7413C34.0549 40.8274 33.5795 41.0833 33.1945 41.0833C32.7001 41.0833 32.3683 40.8529 32.0424 40.551L33.7917 35.0393V13.1672L32.1481 12.3396C32.4996 11.9961 32.9867 11.9167 33.2747 11.9167C33.5386 11.9167 33.7537 12.0173 33.92 12.0982Z" fill="url(#paint0_linear_0_398)"></path>
      <path d="M15.5625 33.7158L33.7917 19.8449V13.251C33.7917 12.3039 32.5798 11.9327 32.0876 12.3877C31.61 12.8281 12.3965 30.3201 12.3965 30.3201C11.7402 30.9253 11.7774 31.9731 12.4745 32.5309C12.4745 32.5309 13.4399 33.4293 13.7892 33.6786C14.3258 34.0615 15.0309 34.1052 15.5625 33.7158Z" fill="url(#paint1_linear_0_398)"></path>
      <path d="M15.5625 19.2842L33.7917 33.1777V39.5732C33.7917 40.4468 32.7563 41.1723 32.0424 40.551L12.3965 22.6799C11.7402 22.0747 11.7774 21.0269 12.4745 20.4691C12.4745 20.4691 13.4399 19.5707 13.7892 19.3213C14.3258 18.9385 15.0309 18.8948 15.5625 19.2842Z" fill="#0288D1"></path>
    </g>
    <defs>
      <linearGradient id="paint0_linear_0_398" x1="36.5625" y1="40.6239" x2="36.5625" y2="14.4104" gradientUnits="userSpaceOnUse">
        <stop stop-color="#29B6F6"></stop>
        <stop offset="1" stop-color="#13B2F6"></stop>
      </linearGradient>
      <linearGradient id="paint1_linear_0_398" x1="13.437" y1="34.3757" x2="34.3699" y2="14.2303" gradientUnits="userSpaceOnUse">
        <stop offset="0.115" stop-color="#0076BB"></stop>
        <stop offset="0.257" stop-color="#0069B0"></stop>
        <stop offset="0.28" stop-color="#0069B0"></stop>
        <stop offset="0.424" stop-color="#0069B0"></stop>
        <stop offset="0.491" stop-color="#0072B7"></stop>
        <stop offset="0.577" stop-color="#0076BB"></stop>
        <stop offset="0.795" stop-color="#0076BB"></stop>
        <stop offset="1" stop-color="#006EB9"></stop>
      </linearGradient>
      <clipPath id="clip0_0_398">
        <rect width="54" height="54" rx="16" fill="white"></rect>
      </clipPath>
    </defs>
  </symbol>
  <symbol fill="none" xmlns="http://www.w3.org/2000/svg" viewBox="0 0 54 54" id="icon-yandex-cloud">
    <rect width="54" height="54" rx="16" fill="#2C2C2C"></rect>
    <path d="M27 44C22.7749 43.898 21.1032 41.0737 20.5932 38.3469C20.3156 36.8645 20.4368 34.3995 20.5932 33.5189C20.846 32.0853 21.254 30.0237 21.7062 27.6324C22.3522 24.2052 24.068 22.2559 27.7729 21.56L33.8317 20.404C33.9926 19.5041 34.2964 17.1219 34.0198 15.6542C33.5042 12.8968 31.3803 10.0442 27.068 10C17.676 10 10 17.6081 10 27C10 36.3919 17.6081 44 27 44Z" fill="url(#paint0_linear_0_385)"></path>
    <path d="M27 10C31.224 10.102 33.315 12.9319 33.825 15.6587C34.1026 17.1411 33.5632 19.6016 33.4068 20.4811C33.154 21.9147 32.746 23.9763 32.2938 26.3676C31.6478 29.7948 29.9308 31.7441 26.2271 32.44L20.5888 33.5473C20.4279 34.446 19.8986 36.877 20.1751 38.3447C20.6908 41.1009 22.6197 43.9558 26.932 44C36.324 44 44 36.3919 44 27C44 17.6081 36.392 10 27 10Z" fill="url(#paint1_linear_0_385)"></path>
    <defs>
      <linearGradient id="paint0_linear_0_385" x1="10" y1="44" x2="36.7557" y2="11.9052" gradientUnits="userSpaceOnUse">
        <stop stop-color="#D2DFFF"></stop>
        <stop offset="1" stop-color="#4E7FFF"></stop>
      </linearGradient>
      <linearGradient id="paint1_linear_0_385" x1="44" y1="10" x2="16.8249" y2="41.1462" gradientUnits="userSpaceOnUse">
        <stop stop-color="#D2DFFF"></stop>
        <stop offset="1" stop-color="#4E7FFF"></stop>
      </linearGradient>
    </defs>
  </symbol>
  <symbol fill="none" xmlns="http://www.w3.org/2000/svg" viewBox="0 0 60 60" id="icon-chart">
    <rect x="1.98113" y="1.98113" width="56.0377" height="56.0377" rx="11.0189" fill="#2C2C2C"></rect>
    <rect x="1.98113" y="1.98113" width="56.0377" height="56.0377" rx="11.0189" stroke="#141414" stroke-width="2.03774"></rect>
    <path d="M10.1321 38.6706L15.7359 40.6981L18.283 34.4827L26.9434 40.6981L34.4024 19.3019L37.6415 25.5173L40.1811 21.3958L44.7736 26.2681L48.8491 19.3019" stroke="#19BCFE" stroke-width="2.54717" stroke-linecap="round" stroke-linejoin="round"></path>
    <path d="M45.578 26.2681L40.7437 21.3958L38.0705 25.5173L34.661 19.3019L26.8093 40.6981L17.6932 34.4827L15.0119 40.6981L9.11322 38.6706V45.7924H49.8679V19.3019L45.578 26.2681Z" fill="url(#paint0_linear_0_88)" fill-opacity="0.5"></path>
    <circle cx="49.8679" cy="17.2641" r="3.0566" fill="#19BCFE"></circle>
    <defs>
      <linearGradient id="paint0_linear_0_88" x1="29.4906" y1="19.3019" x2="29.4906" y2="45.7924" gradientUnits="userSpaceOnUse">
        <stop stop-color="#19BCFE"></stop>
        <stop offset="1" stop-color="#19BCFE" stop-opacity="0"></stop>
      </linearGradient>
    </defs>
  </symbol>
</svg>