<svg width="91" height="17" viewBox="0 0 91 17" fill="none" xmlns="http://www.w3.org/2000/svg">
<path d="M7.579 16.75C5.995 16.75 4.63833 16.4053 3.509 15.716C2.37967 15.0193 1.51067 14.0513 0.902 12.812C0.300667 11.5727 0 10.1353 0 8.5C0 6.86467 0.300667 5.42733 0.902 4.188C1.51067 2.94867 2.37967 1.98433 3.509 1.295C4.63833 0.598333 5.995 0.25 7.579 0.25C9.405 0.25 10.9267 0.708333 12.144 1.625C13.3613 2.53433 14.2157 3.76267 14.707 5.31L12.034 6.047C11.726 5.013 11.2017 4.20633 10.461 3.627C9.72033 3.04033 8.75967 2.747 7.579 2.747C6.51567 2.747 5.62833 2.98533 4.917 3.462C4.213 3.93867 3.68133 4.60967 3.322 5.475C2.97 6.333 2.79033 7.34133 2.783 8.5C2.783 9.65867 2.959 10.6707 3.311 11.536C3.67033 12.394 4.20567 13.0613 4.917 13.538C5.62833 14.0147 6.51567 14.253 7.579 14.253C8.75967 14.253 9.72033 13.9597 10.461 13.373C11.2017 12.7863 11.726 11.9797 12.034 10.953L14.707 11.69C14.2157 13.2373 13.3613 14.4693 12.144 15.386C10.9267 16.2953 9.405 16.75 7.579 16.75Z" fill="white"/>
<path d="M15.5925 16.42L20.5865 0.58H24.4695L29.4635 16.42H26.7355L22.2035 2.208H22.7975L18.3205 16.42H15.5925ZM18.3755 12.988V10.513H26.6915V12.988H18.3755Z" fill="white"/>
<path d="M31.4523 16.42V0.58H44.2893V16.42H41.6383V3.066H34.1033V16.42H31.4523Z" fill="white"/>
<path d="M54.0712 16.75C52.4872 16.75 51.1305 16.4053 50.0012 15.716C48.8719 15.0193 48.0029 14.0513 47.3942 12.812C46.7929 11.5727 46.4922 10.1353 46.4922 8.5C46.4922 6.86467 46.7929 5.42733 47.3942 4.188C48.0029 2.94867 48.8719 1.98433 50.0012 1.295C51.1305 0.598333 52.4872 0.25 54.0712 0.25C55.8972 0.25 57.4189 0.708333 58.6362 1.625C59.8535 2.53433 60.7079 3.76267 61.1992 5.31L58.5262 6.047C58.2182 5.013 57.6939 4.20633 56.9532 3.627C56.2125 3.04033 55.2519 2.747 54.0712 2.747C53.0079 2.747 52.1205 2.98533 51.4092 3.462C50.7052 3.93867 50.1735 4.60967 49.8142 5.475C49.4622 6.333 49.2825 7.34133 49.2752 8.5C49.2752 9.65867 49.4512 10.6707 49.8032 11.536C50.1625 12.394 50.6979 13.0613 51.4092 13.538C52.1205 14.0147 53.0079 14.253 54.0712 14.253C55.2519 14.253 56.2125 13.9597 56.9532 13.373C57.6939 12.7863 58.2182 11.9797 58.5262 10.953L61.1992 11.69C60.7079 13.2373 59.8535 14.4693 58.6362 15.386C57.4189 16.2953 55.8972 16.75 54.0712 16.75Z" fill="white"/>
<path d="M62.0847 16.42L67.0787 0.58H70.9617L75.9557 16.42H73.2277L68.6957 2.208H69.2897L64.8127 16.42H62.0847ZM64.8677 12.988V10.513H73.1837V12.988H64.8677Z" fill="white"/>
<path d="M77.9445 16.42V0.58H80.5955V7.246H88.0975V0.58H90.7375V16.42H88.0975V9.732H80.5955V16.42H77.9445Z" fill="white"/>
</svg>
