<svg width="387" height="60" viewBox="0 0 387 60" fill="none" xmlns="http://www.w3.org/2000/svg">
<path d="M82.5946 32.3304H81.7538C81.31 32.3304 80.9129 32.1929 80.6326 31.895C80.329 31.5742 80.0721 31.1847 80.0487 30.7951V13.8611C80.0721 13.4487 80.2589 13.082 80.5626 12.7841C80.8662 12.4633 81.2399 12.3258 81.7304 12.3258H82.5245V11.5009H78.0401H76.4752L69.328 26.0518L61.924 11.5009H60.289H55.9681V12.3488H56.7622C57.206 12.3488 57.5563 12.4862 57.8833 12.8071C58.187 13.1049 58.3504 13.4487 58.3504 13.8611V31.0243C58.2804 31.3451 58.2103 31.6429 57.93 31.8721C57.6264 32.1929 57.276 32.3304 56.8323 32.3304H56.0381V33.1553L62.8583 33.1324V32.3304H62.0174C61.5737 32.3304 61.1766 32.1929 60.8963 31.895C60.5927 31.5742 60.3591 31.2305 60.3358 30.7951C60.3358 30.7951 60.3124 14.0444 60.3124 13.7236C61.8773 16.9088 68.8142 30.4743 68.8142 30.4743H69.1178C70.4492 27.7245 74.4665 19.8877 77.5963 13.7466V30.7951C77.5963 31.2076 77.3861 31.5513 77.0824 31.8721C76.7554 32.17 76.4051 32.3304 75.9847 32.3304H75.1905V33.1095L82.6179 33.1324V32.3304H82.5946Z" fill="#A5A5A5" stroke="#A5A5A5" stroke-width="0.0606927" stroke-miterlimit="10"/>
<path d="M100.182 11.1115C101.84 11.1115 103.405 11.3636 104.76 11.8906C106.138 12.4177 107.306 13.1738 108.31 14.1592C109.315 15.1445 110.085 16.3132 110.623 17.688C111.183 19.0629 111.463 20.5982 111.463 22.271C111.463 23.9667 111.206 25.479 110.623 26.8539C110.085 28.2517 109.315 29.4204 108.31 30.4057C107.329 31.3681 106.138 32.1472 104.76 32.6743C103.382 33.2013 101.84 33.4534 100.182 33.4534C98.5238 33.4534 97.0056 33.2013 95.6042 32.6743C94.2262 32.1472 93.0584 31.3681 92.054 30.4057C91.0497 29.4204 90.3023 28.2517 89.7417 26.8539C89.1812 25.479 88.9009 23.9667 88.9009 22.271C88.9009 20.5982 89.1578 19.0629 89.7417 17.688C90.3023 16.3132 91.0497 15.1445 92.054 14.1592C93.035 13.1738 94.2262 12.4177 95.6042 11.8906C97.0056 11.3865 98.5005 11.1115 100.182 11.1115ZM100.205 32.1014C101.49 32.1014 102.611 31.8722 103.662 31.3681C104.713 30.9098 105.601 30.2682 106.302 29.3745C107.049 28.5267 107.61 27.5184 108.03 26.304C108.427 25.1124 108.614 23.7604 108.614 22.271C108.614 20.8044 108.404 19.4754 108.03 18.2838C107.61 17.0923 107.049 16.0611 106.302 15.1903C105.578 14.3425 104.69 13.678 103.662 13.1968C102.611 12.7385 101.49 12.4864 100.205 12.4864C98.9209 12.4864 97.7998 12.7155 96.7487 13.1968C95.6977 13.655 94.8568 14.3425 94.1094 15.1903C93.362 16.0611 92.7781 17.0923 92.381 18.2838C91.984 19.4754 91.7971 20.8273 91.7971 22.271C91.7971 23.7604 92.0073 25.1124 92.381 26.304C92.7547 27.4955 93.362 28.5267 94.1094 29.3745C94.8568 30.2453 95.721 30.8869 96.7487 31.3681C97.7998 31.8722 98.9209 32.1014 100.205 32.1014Z" fill="#A5A5A5" stroke="#A5A5A5" stroke-width="0.0606927" stroke-miterlimit="10"/>
<path d="M139.608 23.7834L139.188 28.8704C138.768 29.5349 138.3 30.1536 137.74 30.7265C137.179 31.2765 136.525 31.7806 135.801 32.1931C135.054 32.6055 134.26 32.9263 133.326 33.1555C132.438 33.3846 131.457 33.4992 130.359 33.4992C128.724 33.4992 127.229 33.2471 125.828 32.7201C124.45 32.1931 123.282 31.414 122.278 30.4515C121.274 29.4662 120.503 28.2976 119.966 26.8998C119.405 25.5249 119.125 24.0125 119.125 22.2939C119.125 20.6211 119.382 19.1088 119.919 17.7339C120.456 16.359 121.227 15.1903 122.208 14.205C123.189 13.2197 124.38 12.4635 125.781 11.9364C127.183 11.4094 128.748 11.1573 130.476 11.1573C132.041 11.1573 133.442 11.3636 134.704 11.776C135.941 12.1885 137.063 12.6697 137.997 13.2884L138.674 17.963H137.903C137.46 16.1528 136.572 14.8008 135.217 13.9071C133.886 13.0364 132.298 12.5551 130.523 12.5551C129.191 12.5551 128 12.7843 126.949 13.2655C125.875 13.7238 124.987 14.3654 124.24 15.2133C123.492 16.0611 122.932 17.1152 122.535 18.3067C122.114 19.4983 121.951 20.8044 121.951 22.271C121.951 23.7375 122.161 25.0666 122.581 26.2352C123.002 27.4268 123.562 28.458 124.31 29.3058C125.057 30.1536 125.945 30.8182 126.949 31.3223C128 31.7806 129.121 32.0785 130.336 32.1472C131.387 32.1472 132.391 32.0097 133.349 31.7118C134.307 31.414 135.124 30.9557 135.895 30.314C136.642 29.6724 137.273 28.8017 137.787 27.7476C138.3 26.6706 138.651 25.3874 138.838 23.8292H139.608V23.7834Z" fill="#A5A5A5" stroke="#A5A5A5" stroke-width="0.0606927" stroke-miterlimit="10"/>
<path d="M183.472 11.1115C185.177 11.1115 186.695 11.3636 188.05 11.8906C189.428 12.4177 190.596 13.1738 191.623 14.1592C192.604 15.1445 193.375 16.3132 193.936 17.688C194.473 19.0629 194.73 20.5982 194.73 22.271C194.73 23.9667 194.473 25.479 193.936 26.8539C193.375 28.2517 192.604 29.4204 191.623 30.4057C190.619 31.3681 189.428 32.1472 188.05 32.6743C186.672 33.2013 185.154 33.4534 183.472 33.4534C181.814 33.4534 180.295 33.2013 178.917 32.6743C177.516 32.1472 176.325 31.3681 175.344 30.4057C174.363 29.4204 173.592 28.2517 173.031 26.8539C172.494 25.479 172.191 23.9667 172.191 22.271C172.191 20.5982 172.494 19.0629 173.031 17.688C173.592 16.3132 174.363 15.1445 175.344 14.1592C176.325 13.1738 177.516 12.4177 178.917 11.8906C180.295 11.3865 181.814 11.1115 183.472 11.1115ZM183.495 32.1014C184.78 32.1014 185.924 31.8722 186.952 31.3681C188.003 30.9098 188.891 30.2682 189.638 29.3745C190.362 28.5267 190.923 27.5184 191.343 26.304C191.763 25.0895 191.974 23.7604 191.974 22.271C191.974 20.8044 191.763 19.4754 191.343 18.2838C190.923 17.0923 190.362 16.0611 189.638 15.1903C188.891 14.3425 188.003 13.678 186.952 13.1968C185.948 12.7385 184.78 12.4864 183.495 12.4864C182.257 12.4864 181.09 12.7155 180.038 13.1968C179.034 13.655 178.147 14.3425 177.399 15.1903C176.652 16.0611 176.091 17.0923 175.671 18.2838C175.274 19.4754 175.087 20.8273 175.087 22.271C175.087 23.7604 175.297 25.1124 175.671 26.304C176.091 27.4955 176.652 28.5267 177.399 29.3745C178.147 30.2453 179.034 30.8869 180.038 31.3681C181.09 31.8722 182.257 32.1014 183.495 32.1014Z" fill="#A5A5A5" stroke="#A5A5A5" stroke-width="0.0606927" stroke-miterlimit="10"/>
<path d="M208.861 11.524C211.056 11.5927 212.761 12.0739 213.976 13.0364C215.167 13.9759 215.751 15.2591 215.751 16.8402C215.751 17.9859 215.494 18.9025 214.957 19.6816C214.396 20.4378 213.765 20.9878 213.018 21.3773C214.466 21.7669 215.611 22.4772 216.428 23.5313C217.269 24.5625 217.666 25.7769 217.666 27.1977C217.666 29.0079 217.012 30.4286 215.727 31.5056C214.443 32.5597 212.598 33.0867 210.215 33.0867H202.414V32.3076H203.091C203.559 32.3076 203.956 32.1701 204.283 31.8493C204.586 31.5285 204.75 31.139 204.82 30.6807V13.9759C204.82 13.5176 204.633 13.128 204.306 12.8072C203.979 12.4864 203.559 12.3489 203.091 12.3489H202.461V11.524H208.861ZM209.561 21.1023C210.122 21.0107 210.682 20.8044 211.196 20.5295C211.663 20.2316 212.107 19.7962 212.434 19.2462C212.784 18.7192 212.971 17.9859 212.971 17.0693C212.971 15.7861 212.621 14.8237 211.897 14.1133C211.173 13.403 210.145 13.0593 208.744 13.0593H207.366V21.2627C208.3 21.2398 209.024 21.194 209.561 21.1023ZM210.145 31.5744C211.64 31.5056 212.761 31.1161 213.625 30.3599C214.466 29.5808 214.863 28.458 214.863 27.0602C214.863 25.9832 214.653 25.1353 214.209 24.4708C213.789 23.8063 213.228 23.2792 212.574 22.9355C211.897 22.6147 211.15 22.3626 210.309 22.2252C209.561 22.1335 208.58 22.0877 207.366 22.0418V31.5514L210.145 31.5744Z" fill="#A5A5A5" stroke="#A5A5A5" stroke-width="0.0606927" stroke-miterlimit="10"/>
<path d="M246.021 23.7834L245.6 28.8704C245.18 29.5349 244.713 30.1536 244.152 30.7265C243.592 31.2765 242.938 31.7806 242.19 32.1931C241.466 32.6055 240.649 32.9263 239.761 33.1555C238.874 33.3846 237.893 33.4992 236.795 33.4992C235.16 33.4992 233.665 33.2471 232.264 32.7201C230.886 32.1931 229.718 31.414 228.69 30.4515C227.709 29.4662 226.938 28.2976 226.378 26.8998C225.841 25.5249 225.584 24.0125 225.584 22.2939C225.584 20.6211 225.841 19.1088 226.378 17.7339C226.915 16.359 227.686 15.1903 228.667 14.205C229.648 13.2197 230.839 12.4635 232.24 11.9364C233.642 11.4094 235.207 11.1573 236.935 11.1573C238.477 11.1573 239.878 11.3636 241.163 11.776C242.4 12.1885 243.522 12.6697 244.456 13.2884L245.11 17.963H244.362C243.919 16.1528 242.984 14.8008 241.676 13.9071C240.345 13.0364 238.757 12.5551 236.958 12.5551C235.65 12.5551 234.459 12.7843 233.408 13.2655C232.334 13.7238 231.446 14.3654 230.699 15.2133C229.951 16.0611 229.391 17.1152 228.97 18.3067C228.573 19.4983 228.386 20.8044 228.386 22.271C228.386 23.7375 228.597 25.0666 229.017 26.2352C229.461 27.4268 230.021 28.458 230.769 29.3058C231.516 30.1536 232.404 30.8182 233.408 31.3223C234.459 31.7806 235.58 32.0785 236.795 32.1472C237.846 32.1472 238.85 32.0097 239.808 31.7118C240.766 31.414 241.583 30.9557 242.354 30.314C243.101 29.6724 243.732 28.8017 244.222 27.7476C244.759 26.6706 245.086 25.3874 245.297 23.8292H246.021V23.7834Z" fill="#A5A5A5" stroke="#A5A5A5" stroke-width="0.0606927" stroke-miterlimit="10"/>
<path d="M284.769 11.524V12.3489H283.975C283.531 12.3489 283.134 12.4864 282.854 12.8072C282.527 13.1051 282.387 13.4717 282.317 13.8842V28.183L298.643 11.0657H299.063V30.7036C299.087 31.1619 299.273 31.5514 299.577 31.8493C299.904 32.1701 300.254 32.3076 300.698 32.3076H301.539V33.0867H294.696V32.3076H295.49C295.933 32.3076 296.284 32.1701 296.587 31.8493C296.914 31.5514 297.101 31.1848 297.125 30.7494V16.4277L280.775 33.5221H280.425V13.8842C280.401 13.4717 280.238 13.128 279.911 12.8301C279.584 12.5093 279.233 12.3718 278.813 12.3718H278.019V11.5469L284.769 11.524Z" fill="#A5A5A5" stroke="#A5A5A5" stroke-width="0.0606927" stroke-miterlimit="10"/>
<path d="M314.642 11.524V12.3489H313.801C313.357 12.3489 312.96 12.4864 312.68 12.8072C312.376 13.1051 312.213 13.4717 312.143 13.8842V28.183L328.492 11.0657H328.889V30.7036C328.913 31.1619 329.1 31.5514 329.403 31.8493C329.73 32.1701 330.127 32.3076 330.524 32.3076H331.365V33.0867H324.522V32.3076H325.316C325.76 32.3076 326.157 32.1701 326.437 31.8493C326.741 31.5514 326.904 31.1848 326.951 30.7494V16.4277L310.625 33.5221H310.227V13.8842C310.204 13.4717 310.041 13.128 309.714 12.8301C309.41 12.5093 309.036 12.3718 308.616 12.3718H307.822V11.5469L314.642 11.524Z" fill="#A5A5A5" stroke="#A5A5A5" stroke-width="0.0606927" stroke-miterlimit="10"/>
<path d="M166.725 32.3075C166.538 32.3075 166.375 32.3075 166.188 32.2846C166.141 32.2846 166.118 32.2846 166.071 32.2846C164.296 32.0554 162.941 30.818 162.778 30.6576L154.977 22.0188L162.077 13.6549C162.427 13.2424 162.871 12.9216 163.455 12.6696C163.992 12.4404 164.576 12.3258 165.207 12.3258H165.557V11.5238H158.574V12.3029H159.134C159.368 12.3029 159.555 12.3717 159.671 12.4404C159.788 12.555 159.858 12.6925 159.858 12.8758C159.858 13.0133 159.788 13.1737 159.671 13.2883L152.197 22.0417V13.9757C152.221 13.5174 152.431 13.1279 152.735 12.8071C153.061 12.4633 153.459 12.3029 153.926 12.3029H154.58V11.5009H147.316V12.3258H147.97C148.437 12.3258 148.834 12.4633 149.161 12.83C149.465 13.1508 149.628 13.5403 149.698 13.9986V30.6576C149.628 31.1159 149.465 31.5055 149.161 31.8263C148.834 32.1471 148.437 32.2846 147.97 32.2846H147.316V33.0637H154.58V32.2846H153.926C153.459 32.2846 153.061 32.1471 152.735 31.8263C152.431 31.5055 152.221 31.1159 152.197 30.6576V22.7062L159.812 31.2763C160.068 31.4825 160.162 31.9179 159.998 32.1012C159.812 32.3075 159.555 32.3304 159.274 32.3304H158.55V33.0637H164.646H166.165H167.449V32.3075H166.725Z" fill="#A5A5A5" stroke="#A5A5A5" stroke-width="0.0606927" stroke-miterlimit="10"/>
<path d="M272.531 32.3075C272.344 32.3075 272.181 32.3075 271.994 32.2846C271.947 32.2846 271.924 32.2846 271.877 32.2846C269.985 32.0554 268.584 30.6347 268.56 30.6347L260.759 22.0188L267.906 13.6549C268.257 13.2424 268.7 12.9216 269.284 12.6696C269.822 12.4404 270.382 12.3258 271.013 12.3258H271.41V11.5238H264.426V12.3029H264.987C265.22 12.3029 265.407 12.3717 265.524 12.4404C265.641 12.555 265.711 12.6925 265.711 12.8758C265.711 13.0133 265.641 13.1737 265.524 13.2883L258.05 22.0417V13.9757C258.073 13.5174 258.26 13.1279 258.587 12.8071C258.891 12.4633 259.311 12.3029 259.778 12.3029H260.432V11.5009H253.145V12.3258H253.822C254.289 12.3258 254.686 12.4633 255.013 12.83C255.317 13.1508 255.481 13.5403 255.551 13.9986V30.6576C255.481 31.1159 255.317 31.5055 255.013 31.8263C254.686 32.1471 254.289 32.2846 253.822 32.2846H253.145V33.0637H260.432V32.2846H259.778C259.311 32.2846 258.891 32.1471 258.587 31.8263C258.26 31.5055 258.073 31.1159 258.05 30.6576V22.7062L265.664 31.2763C265.898 31.4825 266.014 31.9179 265.851 32.1012C265.641 32.3075 265.384 32.3304 265.127 32.3304H264.403V33.0637H270.499H272.017H273.302V32.3075H272.531Z" fill="#A5A5A5" stroke="#A5A5A5" stroke-width="0.0606927" stroke-miterlimit="10"/>
<path d="M324.966 5.24524H315.156V6.84927H324.966V5.24524Z" fill="#A5A5A5" stroke="#A5A5A5" stroke-width="0.0606927" stroke-miterlimit="10"/>
<path d="M172.05 44.8785V45.2222H171.7C171.49 45.2222 171.326 45.291 171.186 45.4285C171.046 45.5659 170.976 45.7493 170.953 45.9326V52.3487L178.287 44.6494H178.45L178.473 53.4715C178.473 53.6778 178.567 53.8382 178.684 53.9986C178.824 54.1131 179.011 54.1819 179.197 54.1819H179.571V54.5485H176.488V54.1819H176.838C177.049 54.1819 177.189 54.1131 177.352 53.9986C177.469 53.8611 177.562 53.6778 177.586 53.4944V47.0554L170.229 54.7547H170.065V45.9326C170.065 45.7493 169.972 45.5889 169.855 45.4514C169.715 45.3139 169.528 45.2451 169.341 45.2451H168.991V44.9014L172.05 44.8785Z" fill="#A5A5A5" stroke="#A5A5A5" stroke-width="0.0606927" stroke-miterlimit="10"/>
<path d="M161.843 54.5258V54.1821H162.147C162.334 54.1821 162.497 54.0904 162.661 53.9529C162.801 53.8383 162.894 53.6321 162.894 53.4488V50.0803H157.522V53.4488C157.546 53.6321 157.616 53.8154 157.756 53.9529C157.896 54.0904 158.083 54.1821 158.293 54.1821H158.597V54.5258H155.35V54.1821H155.654C155.864 54.1821 156.028 54.0904 156.191 53.9529C156.308 53.8383 156.401 53.6321 156.425 53.4488V45.9557C156.401 45.7495 156.308 45.589 156.191 45.4286C156.051 45.2912 155.864 45.1995 155.654 45.1995H155.35V44.8558H158.597V45.1995H158.293C158.083 45.1995 157.919 45.2912 157.756 45.4286C157.616 45.5661 157.546 45.7495 157.522 45.9557V49.4158H162.871V45.9557C162.871 45.7724 162.778 45.612 162.637 45.4516C162.497 45.3141 162.31 45.2224 162.124 45.2224H161.82V44.8787H165.043V45.2224H164.763C164.553 45.2224 164.389 45.3141 164.226 45.4516C164.109 45.589 164.015 45.7953 163.992 45.9786V53.4488C164.015 53.655 164.109 53.8154 164.226 53.9758C164.366 54.1133 164.553 54.1821 164.763 54.1821H165.067V54.5258H161.843Z" fill="#A5A5A5" stroke="#A5A5A5" stroke-width="0.0606927" stroke-miterlimit="10"/>
<path d="M186.344 44.8785C187.349 44.9015 188.096 45.1306 188.633 45.5431C189.17 45.9784 189.451 46.5513 189.451 47.2617C189.451 47.7887 189.334 48.2012 189.1 48.522C188.843 48.8657 188.54 49.0948 188.236 49.2782C188.89 49.4386 189.404 49.7823 189.778 50.2406C190.151 50.7218 190.338 51.2717 190.338 51.9134C190.338 52.7154 190.058 53.357 189.497 53.8382C188.914 54.3194 188.096 54.5715 187.022 54.5715H183.542V54.2048H183.845C184.055 54.2048 184.219 54.1361 184.382 53.9986C184.499 53.8611 184.593 53.6778 184.616 53.4716V46.0014C184.616 45.7951 184.546 45.6347 184.382 45.4743C184.242 45.3368 184.055 45.2681 183.845 45.2681H183.565V44.9015H186.344V44.8785ZM186.648 49.1865C186.905 49.1407 187.138 49.049 187.372 48.9115C187.582 48.797 187.769 48.5678 187.956 48.3387C188.096 48.0866 188.189 47.7658 188.189 47.3533C188.189 46.7805 188.026 46.3222 187.699 46.0243C187.372 45.7035 186.905 45.566 186.298 45.566H185.69V49.2094C186.087 49.2094 186.391 49.2094 186.648 49.1865ZM186.905 53.8611C187.559 53.8382 188.096 53.6549 188.446 53.2882C188.82 52.9445 189.03 52.4633 189.03 51.7988C189.03 51.3176 188.914 50.9509 188.727 50.653C188.54 50.3322 188.306 50.1031 187.979 49.9656C187.676 49.8052 187.372 49.6906 186.975 49.6448C186.625 49.5761 186.204 49.5531 185.667 49.5531V53.8153L186.905 53.8611Z" fill="#A5A5A5" stroke="#A5A5A5" stroke-width="0.0606927" stroke-miterlimit="10"/>
<path d="M207.879 44.9015C208.814 44.9015 209.538 45.1306 210.075 45.6118C210.589 46.0931 210.869 46.7576 210.869 47.6054C210.869 47.995 210.776 48.3845 210.612 48.7053C210.472 49.0491 210.262 49.2782 210.005 49.4844C209.724 49.6907 209.444 49.8511 209.094 49.9656C208.136 50.2635 206.688 50.2864 206.431 50.2177L206.361 49.7136C206.408 49.7365 207.482 49.8052 208.557 49.4157C208.767 49.324 208.93 49.1636 209.117 48.9803C209.281 48.797 209.444 48.5449 209.538 48.2241V48.247C209.584 48.0637 209.608 47.8575 209.608 47.5825V47.4679C209.584 46.8722 209.444 46.3909 209.141 46.0472C208.86 45.7035 208.44 45.4973 207.903 45.4973H206.431V53.4258C206.455 53.632 206.525 53.7924 206.665 53.9528C206.805 54.1132 206.992 54.159 207.202 54.159H207.506V54.5028H204.236V54.159H204.539C204.749 54.159 204.913 54.0903 205.076 53.9528C205.193 53.8153 205.287 53.632 205.31 53.4258V45.9097C205.287 45.7264 205.193 45.566 205.053 45.4514C204.936 45.3369 204.749 45.2452 204.539 45.2452H204.236V44.9015H207.879Z" fill="#A5A5A5" stroke="#A5A5A5" stroke-width="0.0606927" stroke-miterlimit="10"/>
<path d="M236.094 53.3571C236.211 53.6321 236.398 53.8383 236.584 53.9529C236.795 54.0675 236.982 54.1133 237.168 54.1133H237.402V54.4799H234.085V54.1133H234.319C234.436 54.1133 234.552 54.0904 234.646 53.9987C234.763 53.93 234.786 53.8154 234.786 53.655C234.786 53.5633 234.763 53.4946 234.739 53.4029L233.898 51.2031H230.372L229.461 53.4258V53.4029C229.437 53.5175 229.414 53.5862 229.414 53.655C229.414 53.7925 229.484 53.93 229.554 53.9987C229.671 54.0904 229.764 54.1133 229.904 54.1133H230.138V54.457H227.148V54.1133H227.405C227.569 54.1133 227.779 54.0445 227.989 53.93C228.199 53.8154 228.363 53.6092 228.503 53.3571L231.61 46.1161C231.726 45.9098 231.796 45.7265 231.866 45.5432C231.937 45.4057 231.983 45.2224 232.03 45.062C232.1 44.9016 232.123 44.7641 232.123 44.6724H232.45L236.094 53.3571ZM233.665 50.6073L232.17 46.7118L230.629 50.6073H233.665Z" fill="#A5A5A5" stroke="#A5A5A5" stroke-width="0.0606927" stroke-miterlimit="10"/>
<path d="M246.441 47.1468C246.324 46.8947 246.207 46.6656 246.091 46.4364C245.974 46.2302 245.81 46.0469 245.623 45.8865C245.437 45.7261 245.226 45.5886 244.993 45.5198C244.736 45.4282 244.432 45.4053 244.105 45.4053H242.237V53.3337C242.26 53.5171 242.354 53.7004 242.494 53.8608C242.61 53.9754 242.821 54.067 243.031 54.067H243.335V54.4107H240.065V54.067H240.368C240.578 54.067 240.765 53.9754 240.905 53.8608C241.046 53.7233 241.139 53.5171 241.162 53.3337V45.8635C241.139 45.6573 241.046 45.4969 240.905 45.3365C240.789 45.199 240.578 45.1303 240.368 45.1303H240.065V44.7866H245.997L246.838 47.1697H246.441V47.1468Z" fill="#A5A5A5" stroke="#A5A5A5" stroke-width="0.0606927" stroke-miterlimit="10"/>
<path d="M224.486 54.159H224.089C223.902 54.159 223.739 54.0903 223.575 53.9528C223.458 53.8382 223.365 53.6549 223.341 53.4487L223.318 49.2095V45.9327C223.341 45.7493 223.412 45.5889 223.552 45.4514C223.668 45.314 223.855 45.2452 224.066 45.2452H224.416V44.9015H222.407H222.15L218.974 52.5321L215.681 44.9015H214.956H213.018V45.2452H213.392C213.555 45.2452 213.742 45.3369 213.882 45.4514C213.999 45.5889 214.092 45.7723 214.092 45.9327L214.116 53.5862C214.092 53.7237 214.022 53.8611 213.905 53.9528C213.789 54.0903 213.602 54.159 213.415 54.159H213.065V54.5028H216.101V54.159H215.751C215.54 54.159 215.377 54.0903 215.237 53.9528C215.12 53.8382 215.027 53.6549 215.003 53.4716L214.98 49.6448V49.1178L214.956 46.4597C214.956 46.2305 214.956 46.0243 214.956 45.8868C215.564 47.3075 218.764 54.5028 218.764 54.5028H218.88C218.904 54.4111 221.006 49.5532 222.22 46.7805L222.244 50.5156V53.1737V53.4716C222.244 53.632 222.127 53.8153 222.01 53.9528C221.87 54.0674 221.683 54.159 221.52 54.159H221.169V54.5028H224.486V54.159Z" fill="#A5A5A5" stroke="#A5A5A5" stroke-width="0.0606927" stroke-miterlimit="10"/>
<path d="M148.413 44.9015V45.2452H148.624C148.811 45.2452 149.231 45.2681 149.348 45.3368C149.465 45.4514 149.418 45.5889 149.418 45.5889L147.129 50.6072C145.657 47.6512 144.7 45.818 144.653 45.566C144.583 45.3139 144.77 45.1993 145.214 45.2223H145.4V44.8785H142.691V45.2223H142.995C143.205 45.2223 143.415 45.3368 143.625 45.5431C143.836 45.7264 144.887 47.7887 146.732 51.6842C146.732 51.6842 146.475 52.1654 146.381 52.3029C146.148 52.7154 145.891 53.0133 145.891 53.0133C145.517 53.5403 144.91 53.9528 144.373 54.0673L143.929 54.159V54.5486H144.536C144.536 54.5486 145.844 54.5256 146.825 53.1278C146.825 53.1278 147.105 52.7154 147.362 52.28C147.409 52.2112 147.479 52.0967 147.526 51.9592C147.549 51.9363 147.573 51.9134 147.573 51.9134L150.282 45.9784C150.375 45.7951 150.469 45.566 150.586 45.4514C150.702 45.3368 150.889 45.2452 151.076 45.2452H151.38V44.9015H148.413Z" fill="#A5A5A5" stroke="#A5A5A5" stroke-width="0.0606927" stroke-miterlimit="10"/>
<path d="M200.335 52.853V53.1967C200.335 53.3801 200.265 53.5405 200.148 53.6779C200.032 53.7925 199.868 53.8842 199.681 53.9071H196.645V50.9969V50.1262V50.0803H198.887C199.027 50.1032 199.167 50.1491 199.261 50.2636C199.378 50.3782 199.424 50.4928 199.424 50.6303V50.9511H199.775V48.5909H199.424V48.9117C199.424 49.0492 199.354 49.2096 199.261 49.3012C199.144 49.4158 199.004 49.4616 198.864 49.4616H196.645V45.5203H199.331C199.518 45.5432 199.681 45.612 199.821 45.7265C199.938 45.8411 200.008 46.0244 200.008 46.2077V46.5515H200.359V44.8558H194.449V45.1995H194.753C194.94 45.1995 195.103 45.2682 195.267 45.4057C195.407 45.5203 195.501 45.6807 195.501 45.864V50.3553V50.974V53.4717C195.501 53.655 195.407 53.8154 195.267 53.9529C195.127 54.0675 194.94 54.1362 194.753 54.1362H194.449V54.48H200.686V52.7843H200.335V52.853Z" fill="#A5A5A5" stroke="#A5A5A5" stroke-width="0.0606927" stroke-miterlimit="10"/>
</svg>
