<svg width="388" height="60" viewBox="0 0 388 60" fill="none" xmlns="http://www.w3.org/2000/svg">
<g clip-path="url(#clip0_0_455)">
<path d="M168.125 16.8713H159.029L149.933 29.8219L153.801 6.64862H146.064L140 42.973H147.737L149.912 29.9455L158.192 42.973H167.497L158.717 29.7395L168.125 16.8713Z" fill="#A5A5A5"/>
<path d="M213.293 16.3524C209.881 16.3524 207.311 17.5542 205.134 19.6605L205.02 19.6403L204.719 16.8194H197.714V53.3513H205.347V41.0804L205.548 41.0394C207.496 42.6066 210.064 43.4919 212.979 43.4919C220.141 43.4919 225.578 38.1989 225.578 29.7924C225.578 21.5416 220.402 16.3524 213.293 16.3524ZM211.62 36.694C207.804 36.694 205.347 34.0476 205.347 29.8962C205.347 25.7967 207.804 23.1502 211.62 23.1502C215.436 23.1502 217.893 25.7967 217.893 29.8962C217.893 34.0476 215.436 36.694 211.62 36.694Z" fill="#A5A5A5"/>
<path d="M180.671 16.3524C172.673 16.3524 167.131 22.0605 167.131 29.8962C167.131 37.8356 172.777 43.4919 180.775 43.4919C187.519 43.4919 192.119 39.4442 193.479 34.8779H185.899C184.853 36.3827 183.18 37.0573 181.141 37.0573C177.799 37.0573 175.416 35.2562 174.628 32.2313H194.001C194.995 23.4615 189.61 16.3524 180.671 16.3524ZM180.566 22.787C183.343 22.787 185.399 24.3241 186.258 27.0422H174.771C175.636 24.3931 177.756 22.787 180.566 22.787Z" fill="#A5A5A5"/>
<path d="M239.503 24.1364H245.598L246.748 16.8715H240.725L242.096 8.72449H234.359L232.996 16.8715H228.713L227.511 24.1364H231.781L229.915 35.2931C229.079 40.4304 230.961 42.9731 237.025 42.9731H242.619L243.769 35.7083H239.377C238.018 35.7083 237.652 35.2413 237.861 33.892L239.503 24.1364Z" fill="#A5A5A5"/>
</g>
<defs>
<clipPath id="clip0_0_455">
<rect width="108" height="46.7027" fill="white" transform="translate(140 6.64862)"/>
</clipPath>
</defs>
</svg>
